<?xml version="1.0" encoding="UTF-8" standalone="no"?>
<svg
   xmlns:dc="http://purl.org/dc/elements/1.1/"
   xmlns:cc="http://creativecommons.org/ns#"
   xmlns:rdf="http://www.w3.org/1999/02/22-rdf-syntax-ns#"
   xmlns:svg="http://www.w3.org/2000/svg"
   xmlns="http://www.w3.org/2000/svg"
   version="1.1"
   id="svg11940"
   viewBox="0 0 744.09448819 1052.3622047"
   height="297mm"
   width="210mm">
  <defs
     id="defs11942" />
  <metadata
     id="metadata11945">
    <rdf:RDF>
      <cc:Work
         rdf:about="">
        <dc:format>image/svg+xml</dc:format>
        <dc:type
           rdf:resource="http://purl.org/dc/dcmitype/StillImage" />
        <dc:title></dc:title>
      </cc:Work>
    </rdf:RDF>
  </metadata>
  <g
     id="layer11">
    <path
       id="path12027"
       d="m 66.144229,0.61718792 c -9.68944,-0.05099 -19.38054,0.382166 -29.06446,0.74218698 -10.96168,0.407527 -26.5783,1.322967 -32.8613301,1.761719 -1.35405,0.09455 -3.89124001,-0.136681 -4.03906001,0.503906 0,0 0.96119001,1.460532 1.26172001,2.273438 3.06841,8.2998181 4.33386,17.2160721 5.30274,26.0117221 1.78223,16.17941 0.89153,27.07801 0.89453,48.82422 0.002,10.94084 -0.53481,20.60285 -0.64649,29.66796 -0.11168,9.06512 0.51632,17.52816 -1.25781,26.0586 -0.77301,3.71681 -2.14879,7.4609 -4.43945,10.48828 -0.55629001,0.7352 -1.38774001,1.32392 -1.09961001,2.01953 0.3056,0.7378 5.93359001,0.53516 5.93359001,0.53516 0,0 34.8688801,-1.93167 54.6582001,-1.67969 4.57334,0.0582 13.70118,0.75781 13.70118,0.75781 0,0 4.7034,1.60562 5.36718,0.59961 0.43764,-0.66328 -1.18805,-2.02928 -1.64257,-2.77734 -0.57013,-0.93832 -5.02308,-3.3305 -7.32422,-22.31836 -0.63902,-5.27291 -1.87519,-35.05309 -2.33594,-52.87305 -0.23037,-8.90998 -0.29584,-18.73601 -0.46484,-28.19141 -0.169,-9.4554 -0.44118,-18.54135 0.33984,-25.253902 0.70313,-6.043079 2.12345,-9.6750721 3.72461,-14.3945311 0.2913,-0.858573 0.55694,-1.691375 0.22851,-2.078125 -0.61927,-0.72924698 -1.12747,-0.60515998 -2.08398,-0.62499998 -1.38407,-0.02872 -2.76814,-0.04545 -4.15234,-0.05273 z M 37.793499,4.7472099 c 0.37307,-0.04933 1.42449,0.783169 1.97489,1.500837 2.02107,2.635312 3.18748,5.2516761 4.16221,8.1416261 1.49948,4.445749 1.94982,9.212347 2.22563,13.896037 0.66672,11.32217 0.89046,31.06517 0.93638,46.55609 0.0482,16.24755 0.1257,33.38954 -0.23806,49.63308 -0.0547,2.44159 -0.29703,4.98691 -0.92159,7.32228 -1.16374,4.35152 -2.54706,7.11386 -4.79771,11.03571 -0.36031,0.62786 -1.5651,2.16694 -2.06529,2.21401 -0.5096,0.048 -1.60478,-1.43566 -2.25753,-2.36078 -2.67708,-3.79408 -4.28596,-8.31614 -5.34934,-12.83621 -1.36132,-5.78658 -1.1417,-35.35237 -1.52957,-53.0332 -0.34681,-15.80863 -0.57142,-32.36545 -0.71317,-47.43192 -0.0325,-3.45514 0.24443,-7.01616 0.95229,-10.398163 0.77509,-3.70322 2.66529,-8.629342 4.84263,-11.7234931 0.89335,-1.269517 1.54093,-1.911301 1.79221,-2.105802 0.38404,-0.29727 0.61295,-0.360767 0.98602,-0.410102 z"
       style="opacity:1;fill:#ffff00;fill-opacity:1;fill-rule:evenodd;stroke:none;stroke-width:1px;stroke-linecap:butt;stroke-linejoin:miter;stroke-opacity:1" />
  </g>
</svg>
