<?xml version="1.0" encoding="UTF-8" standalone="no"?>
<!-- Created with Inkscape (http://www.inkscape.org/) -->

<svg
   xmlns:dc="http://purl.org/dc/elements/1.1/"
   xmlns:cc="http://creativecommons.org/ns#"
   xmlns:rdf="http://www.w3.org/1999/02/22-rdf-syntax-ns#"
   xmlns:svg="http://www.w3.org/2000/svg"
   xmlns="http://www.w3.org/2000/svg"
   xmlns:sodipodi="http://sodipodi.sourceforge.net/DTD/sodipodi-0.dtd"
   xmlns:inkscape="http://www.inkscape.org/namespaces/inkscape"
   width="210mm"
   height="297mm"
   viewBox="0 0 744.09448819 1052.3622047"
   id="svg13342"
   version="1.1"
   inkscape:version="0.91 r13725"
   sodipodi:docname="13.svg">
  <defs
     id="defs13344" />
  <sodipodi:namedview
     id="base"
     pagecolor="#ffffff"
     bordercolor="#666666"
     borderopacity="1.0"
     inkscape:pageopacity="0.0"
     inkscape:pageshadow="2"
     inkscape:zoom="1.979899"
     inkscape:cx="-42.518355"
     inkscape:cy="915.64978"
     inkscape:document-units="px"
     inkscape:current-layer="layer13"
     showgrid="false"
     inkscape:window-width="1535"
     inkscape:window-height="876"
     inkscape:window-x="65"
     inkscape:window-y="24"
     inkscape:window-maximized="1" />
  <metadata
     id="metadata13347">
    <rdf:RDF>
      <cc:Work
         rdf:about="">
        <dc:format>image/svg+xml</dc:format>
        <dc:type
           rdf:resource="http://purl.org/dc/dcmitype/StillImage" />
        <dc:title></dc:title>
      </cc:Work>
    </rdf:RDF>
  </metadata>
  <g
     inkscape:groupmode="layer"
     id="layer13"
     inkscape:label="Layer 2">
    <path
       style="opacity:1;fill:#ffff00;fill-opacity:1;fill-rule:evenodd;stroke:none;stroke-width:1px;stroke-linecap:butt;stroke-linejoin:miter;stroke-opacity:1"
       d="m 49.309582,0.25448036 c -0.15597,0.0024 -0.3147,0.02922 -0.47656,0.0918 -0.56619,0.21889 -0.87812,0.76910404 -1.20703,1.27929604 -2.24859,3.487889 -4.72008,6.879101 -6.58594,10.5664076 -0.3623,0.715971 -0.72488,1.779544 -1.06836,2.044921 -0.5342,0.412738 -1.66347,0.312189 -2.33789,0.236329 -3.36276,-0.378252 -7.49165,-0.661761 -9.70703,-1.232422 -0.27657,-0.07124 -0.54939,-0.12123 -0.77149,-0.371094 -0.36338,-0.40882 -0.30818,-0.904751 -0.23828,-1.396484 0.58542,-4.1213486 1.04831,-4.9622306 2.52539,-8.8378916 0.2352,-0.617182 0.57153,-1.046597 0.22266,-1.607422 -0.30657,-0.49279804 -0.97841,-0.43580904 -1.73828,-0.41210904 -8.19097,0.25542201 -16.800962,0.118015 -25.7578131,-0.253907 -0.845264,-0.0351 -1.50638896,-0.121276 -1.78906298,0.46484401 -0.214844,0.44547603 0.143755,0.94124003 0.52539102,1.55664103 0.75420296,1.216175 1.52498696,2.444949 2.02148396,3.787109 1.077054,2.911553 1.563736,6.0210586 2.019532,9.0917976 1.30151,8.768386 1.611151,17.660585 2.019531,26.515624 0.721415,15.64277 0.802652,31.31331 0.757812,46.97265 -0.03309,11.55633 1.398223,22.55793 -0.757812,34.66016 -0.452904,2.54224 -1.209403,6.63452 -2.650391,8.77734 -0.998698,1.4851 -2.871667,2.8382 -3.91406198,4.29297 -0.293439,0.40952 -0.140922,0.84802 -0.04102,1.16016 0.07836,0.24481 0.54457002,0.59942 1.55468798,0.60742 7.15913,0.0592 12.0242731,0.0458 21.4765631,0.35352 9.45229,0.30773 16.45882,0.18179 23.22266,0.15039 2.54035,-0.0118 5.09468,-0.72834 7.30859,-2.16016 1.40306,-0.90741 2.77988,-2.41794 3.55078,-3.90039 0.32026,-0.61587 0.61148,-1.26037 0.8125,-1.32617 0.19804,-0.0648 0.3342,0.17539 0.70313,0.56836 0.85655,0.91235 1.72099,1.85445 2.77734,2.52539 2.33739,1.4846 4.9196,3.19745 7.67188,3.18945 3.20144,-0.009 6.45377,-1.41986 8.69726,-3.77344 1.82982,-1.91961 2.87502,-4.46107 2.82422,-7.21289 -0.0268,-1.45171 -0.8905,-2.37782 -1.68945,-3.63086 -0.0699,-0.10958 -0.36881,-0.40305 -0.47852,-0.47265 -0.13356,-0.0848 -0.42014,-0.15058 -0.57812,-0.14258 -0.61499,0.0316 -1.74084,0.0472 -2.00781,0.0644 -0.29426,0.0189 -0.56204,0.055 -0.64453,0.23633 -0.13637,0.29984 -0.0435,0.51657 0.0312,0.75781 0.47394,1.53089 0.90188,3.01557 0.75782,4.54493 -0.11989,1.27274 -0.83712,2.64862 -1.76758,3.47265 -1.51402,1.34086 -4.08814,2.17941 -6.0918,1.89453 -2.28848,-0.32537 -4.42449,-2.50875 -5.96679,-4.23047 -1.31785,-1.47116 -2.59713,-3.17898 -2.67383,-5.28711 -0.1479,-4.06587 3.46308,-9.63394 5.76562,-12.98828 4.53085,-6.60057 6.59326,-9.69333 12.9043,-15.2207 8.29091,-7.26138 11.19262,-8.98016 20.62305,-13.47656 0.612695,-0.29213 1.339088,-1.04256 1.246088,-1.60938 -0.10741,-0.65437 -0.502453,-0.87155 -1.767578,-1.24218 -11.37866,-3.33344 -25.61662,-7.29404 -34.0625,-10.25 -0.58619,-0.20515 -1.12584,-0.60631 -1.33984,-1.29297 -0.35088,-1.12586 1.07226,-2.9043 1.07226,-2.9043 0,0 15.96746,-24.08527 31.82032,-43.056638 0.69125,-0.827228 1.32128,-1.332364 1.23046,-2.115234 -0.0745,-0.642656 -0.52636,-0.976371 -1.48242,-1.421875 -7.33264,-3.416859 -15.005,-6.333019 -22.53906,-9.2792976 -7.53405,-2.946278 -16.74117,-6.321038 -22.66602,-8.39648404 -0.43476,-0.152296 -0.87779,-0.368656 -1.3457,-0.361328 z M 27.252942,16.693934 c 0.25202,-1.1e-4 0.66838,0.03655 1.43164,0.08398 1.52652,0.09488 16.91854,1.604621 25.00196,4.039063 7.43133,2.238058 14.1601,5.727372 21.21289,9.597656 0.82496,0.452706 1.32473,0.795628 1.5664,1.705078 0.2339,0.880231 -0.0176,1.095913 -0.55664,1.830078 -14.20691,19.351131 -27.93242,39.392391 -45.20508,56.064461 -0.6053,0.58425 -1.2111,1.74645 -2.01953,1.51367 -1.12666,-0.32441 -0.96723,-2.11297 -1.03906,-3.28321 -0.6951,-11.32445 -0.86178,-22.53807 -1.00586,-34.05664 -0.14409,-11.51858 -0.30632,-23.087939 -0.19336,-34.646484 0.0102,-1.041464 0.13941,-2.498115 0.36133,-2.708984 0.10616,-0.100875 0.1933,-0.138562 0.44531,-0.138668 z m 16.13672,66.165736 c 9.7238,0.42714 18.58197,3.12893 28.22656,5.8284 0.64721,0.18115 1.2553,0.80349 0.87389,1.35687 -3.18279,4.61779 -8.23267,10.60251 -11.48131,16.44587 -2.51503,4.5238 -4.7723,9.27297 -6.12305,14.26953 -0.80784,2.98828 -0.0777,6.30805 -1.13671,9.2168 -0.48936,1.34406 -1.32851,2.5842 -2.33594,3.59961 -1.92584,1.94111 -8.88069,2.06996 -15.97266,1.45117 -1.611,-0.14056 -3.12995,-1.29666 -4.10351,-2.58789 -1.58378,-2.10056 -2.00054,-4.95387 -2.21094,-7.57617 -0.75131,-9.36402 -0.82051,-14.16931 -0.75781,-24.4336 0.006,-0.95177 0.27321,-1.98552 0.88476,-2.71484 4.53033,-5.40275 8.09191,-9.42919 11.99488,-13.88936 0.44125,-0.50425 1.47244,-0.99579 2.14184,-0.96639 z"
       id="path13477"
       inkscape:connector-curvature="0"
       sodipodi:nodetypes="scsssssccccsssssssssssccsssscsscssccccccsssssssscscscscssscsssssssssscsssssssssssssssss" />
  </g>
</svg>
