<?xml version="1.0" encoding="UTF-8" standalone="no"?>
<svg
   xmlns:dc="http://purl.org/dc/elements/1.1/"
   xmlns:cc="http://creativecommons.org/ns#"
   xmlns:rdf="http://www.w3.org/1999/02/22-rdf-syntax-ns#"
   xmlns:svg="http://www.w3.org/2000/svg"
   xmlns="http://www.w3.org/2000/svg"
   version="1.1"
   id="svg2"
   viewBox="0 0 744.09448819 1052.3622047"
   height="297mm"
   width="210mm">
  <defs
     id="defs4" />
  <metadata
     id="metadata7">
    <rdf:RDF>
      <cc:Work
         rdf:about="">
        <dc:format>image/svg+xml</dc:format>
        <dc:type
           rdf:resource="http://purl.org/dc/dcmitype/StillImage" />
        <dc:title></dc:title>
      </cc:Work>
    </rdf:RDF>
  </metadata>
  <g
     id="layer2">
    <path
       id="path4471"
       d="m 65.39574,0.16391631 c -0.42687,-0.0047 -0.85061,0.115791 -1.125,0.376954 -5.43123,5.16940799 -6.92142,6.40327399 -11.36328,9.97460869 -3.2022,2.574627 -6.2584,5.371051 -8.9668,8.460937 -5.40541,6.166787 -10.99831,12.487027 -14.39453,19.951176 -2.38052,5.23186 -3.54912,10.50444 -3.91406,16.79296 -0.0225,0.3874 -0.38152,0.78802 -0.75781,0.88282 -1.82524,0.45987 -3.55157,0.41385 -5.42969,0.12695 -0.44229,-0.0676 -0.86291,-0.56279 -0.88281,-1.00977 -0.48671,-10.92591 -1.36214,-19.69317 -1.13672,-29.54687 0.0915,-3.999255 -0.13162,-5.92345 0.25195,-11.996094 0.16459,-2.605725 1.49153,-5.0529761 2.7793,-7.3242177 1.138,-2.007097 2.59518,-3.815633 4.29297,-5.427735 0.26256,-0.249312 0.13943,-0.87301599 -0.63282,-0.88476499 -1.48231,-0.02254 -2.69648,-0.107458 -4.03906,0 C 13.76588,1.0460313 7.1921104,1.3928823 1.3254306,1.5193853 0.22076056,1.5432053 0.06464056,2.8398563 0.50511056,3.1932133 3.3728406,5.4937763 4.4698006,8.1577749 5.2922206,11.138526 c 1.52004,5.509163 1.7936798,10.681524 2.2324298,16.072265 1.29247,15.880091 1.51737,31.597651 1.78515,47.410157 0.26658,15.74191 0.63153,31.557082 -0.17969,47.232412 -0.19713,3.80919 -1.39823,7.62745 -3.2128898,10.98242 -0.89383,1.65253 -1.51856,2.14071 -3.66211,4.28516 -0.25334,0.25347 -0.44332,0.53714 -0.34179,0.88086 0.13345,0.45174 0.64618,1.31459 1.11718,1.30859 11.1308594,-0.15274 20.8886594,-0.0262 31.5664094,0.25195 8.03299,0.20928 16.30531,-1.19323 23.99219,-3.53515 6.39275,-1.94764 12.427898,-4.79241 17.929688,-8.58594 6.20139,-4.27592 11.75042,-9.61745 16.41601,-15.53125 6.108194,-7.74236 11.687692,-16.266252 14.773442,-25.632802 2.43899,-7.40337 3.77948,-15.51986 2.65039,-23.232426 C 108.84,52.671292 103.82611,42.835282 97.985582,34.128762 88.173418,19.5017 81.149508,12.713982 66.54418,0.54087031 c -0.29099,-0.242531 -0.72157,-0.372296 -1.14844,-0.376954 z M 55.13402,16.882666 c 0.40721,-0.02512 0.79721,0.09401 1.18164,0.326172 9.2526,5.587893 16.355368,12.746208 22.476558,20.960934 7.18661,9.64454 14.04842,20.20779 16.03516,32.324216 0.14311,0.87279 -0.48175,1.80194 -1.13477,2.39844 -5.3124,4.85255 -10.32334,8.64843 -15.6582,12.75391 -4.82376,3.71216 -9.57454,7.01351 -14.773438,10.73242 -1.00193,0.71671 -1.45121,0.90398 -2.14648,-0.125 C 52.72563,83.838468 47.285,77.492388 43.81566,65.947118 40.10579,53.601372 41.74654,47.072602 43.68871,39.304542 c 1.3143,-5.25679 5.68164,-15.150391 5.68164,-15.150391 0,0 2.07971,-4.072228 3.53711,-5.808594 0.8221,-0.979456 1.54787,-1.421022 2.22656,-1.462891 z M 20.84915,76.509898 c 1.54724,-0.17752 2.11411,-0.19561 3.6462,0.0446 0.5007,0.0785 0.99984,0.52179 1.13672,1.00977 2.27576,8.11334 5.18752,13.1705 8.83984,19.19335 4.02919,6.644322 6.69628,10.156572 11.95961,16.212372 0.70453,0.81062 2.50247,2.97776 3.43685,2.99591 0.93437,0.0182 1.86508,-1.18944 2.69618,-1.91306 13.03301,-11.34759 25.101538,-21.033092 39.358528,-32.195612 0.59744,-0.46777 2.34161,0.0246 2.14649,0.75782 -2.16977,8.1538 -5.02721,15.890527 -9.59571,22.728502 -4.828,7.22638 -11.32785,13.38569 -18.308588,18.5625 -5.95847,4.4187 -12.5047,8.54601 -19.69922,10.35352 -4.89809,1.23057 -9.88686,1.60814 -15.46606,0.0638 -3.81613,-1.05631 -6.18452,-4.51523 -7.95972,-8.05461 -1.86313,-3.7147 -1.95794,-8.35712 -2.13867,-12.50893 -0.51494,-11.82957 -0.35362,-23.058212 -1.10687,-36.068632 -0.0293,-0.50597 0.5509,-1.12359 1.05442,-1.18136 z"
       style="opacity:1;fill:#ffff00;fill-opacity:1;fill-rule:evenodd;stroke:none;stroke-width:1px;stroke-linecap:butt;stroke-linejoin:miter;stroke-opacity:1" />
  </g>
</svg>
