<?xml version="1.0" encoding="UTF-8" standalone="no"?>
<svg
   xmlns:dc="http://purl.org/dc/elements/1.1/"
   xmlns:cc="http://creativecommons.org/ns#"
   xmlns:rdf="http://www.w3.org/1999/02/22-rdf-syntax-ns#"
   xmlns:svg="http://www.w3.org/2000/svg"
   xmlns="http://www.w3.org/2000/svg"
   version="1.1"
   id="svg2"
   viewBox="0 0 744.09448819 1052.3622047"
   height="297mm"
   width="210mm">
  <defs
     id="defs4" />
  <metadata
     id="metadata7">
    <rdf:RDF>
      <cc:Work
         rdf:about="">
        <dc:format>image/svg+xml</dc:format>
        <dc:type
           rdf:resource="http://purl.org/dc/dcmitype/StillImage" />
        <dc:title></dc:title>
      </cc:Work>
    </rdf:RDF>
  </metadata>
  <g
     id="layer2">
    <path
       id="path3479"
       d="m 24.80469,0.21121606 c -0.71397,0.0024 -1.50357,0.25785 -2.24805,0.757813 C 14.96771,6.0654571 10.077445,9.4290431 1.2246089,14.664341 c -1.45312903,0.859337 -1.67468303,1.336002 0.08789,2.304688 16.7049001,9.180766 20.5140501,10.829683 34.1230501,20.871094 0.68074,0.502286 0.67131,1.790653 0.25195,2.52539 -3.68227,6.451452 -7.97614,12.745264 -11.36328,19.445314 -4.21888,8.34532 -6.82125,17.59322 -11.490236,25.69531 -3.2448021,5.6307 -3.9050661,7.80766 -11.3964841,15.626953 -1.19302303,1.24523 -1.03524103,2.27714 0.0625,3.0293 10.6706741,7.31146 22.4687901,15.91759 34.1875001,32.16797 0.8725,1.2099 2.14757,0.95746 3.03125,0 5.89564,-6.38792 8.62649,-9.3896 13.63672,-13.32227 4.71405,-3.70019 10.3327,-7.25904 17.67773,-11.17382 1.26342,-0.67338 2.5054,-0.76979 3.28321,0 8.41596,8.32912 14.86357,16.41428 22.63281,25.53711 0.72522,0.85153 1.50245,0.90989 2.36719,-0.0312 13.311791,-14.48871 20.467221,-20.78261 27.333981,-33.43946 6.33659,-11.679633 12.7649,-24.508103 12.0625,-37.777343 -0.77437,-14.62884 -7.56016,-23.629068 -13.63672,-34.343751 -5.4779,-9.659068 -13.10387,-17.74804 -20.26172,-26.4433599 -1.26075,-1.531554 -3.03751,-1.096627 -4.740231,0.179688 -3.89455,2.919248 -4.92544,4.5065589 -14.14063,12.8789059 -4.84698,4.403664 -9.15007,8.271349 -13.63867,14.142578 -0.79498,1.039855 -0.98827,0.829257 -2.77734,0 -25.53382,-11.835261 -30.9357,-18.851765 -41.92188,-31.56835894 -0.44025,-0.5096 -1.07704,-0.760222 -1.79101,-0.757813 z M 92.17383,24.717076 c 0.38466,-0.02118 0.75863,0.214921 1.21875,0.68164 14.16576,14.368962 23.65261,27.992891 25.35742,45.177731 1.61853,16.31508 -2.48814,29.841243 -15.17773,46.785163 -1.38192,1.84522 -2.34205,0.98292 -2.85743,0.17969 -6.17789,-9.62829 -11.30162,-11.95947 -16.78711,-18.392583 -7.74824,-9.08675 -13.69691,-19.32534 -13.57031,-30.53711 0.18035,-15.97112 7.43349,-28.404335 20.53516,-43.035156 0.50123,-0.55973 0.89659,-0.838194 1.28125,-0.859375 z m -35.87946,6.484096 c 3.82552,1.639798 6.80999,3.037164 10.4015,4.553013 1.2483,0.526859 1.46824,0.738092 0.71484,1.964844 -3.15368,5.135145 -11.44153,17.219168 -12.94587,27.142578 -1.28066,8.44788 0.84454,17.32218 3.75,25.35742 2.06183,5.70212 6.62574,11.799813 9.46289,15.535163 0.88723,1.16812 1.1341,1.74363 0,2.32226 -5.19185,2.64895 -9.33379,5.2385 -14.46289,8.75 -1.03932,0.71154 -0.85964,0.80857 -2.0163,-0.0432 C 37.3508,106.58532 30.50835,100.86688 21.03051,91.941087 c -1.33653,-1.25869 -1.43718,-1.38953 -0.49535,-3.14976 3.68396,-6.88513 6.60063,-12.62318 9.2123,-19.23369 3.03487,-7.68165 8.48425,-14.60038 13.10996,-21.65889 3.55787,-5.429064 7.41562,-10.70125 11.25,-15.894532 0.93196,-1.262244 1.26549,-1.197993 2.18695,-0.803013 z"
       style="opacity:1;fill:#ffff00;fill-opacity:1;fill-rule:evenodd;stroke:none;stroke-width:1px;stroke-linecap:butt;stroke-linejoin:miter;stroke-opacity:1" />
  </g>
</svg>
