<?xml version="1.0" encoding="UTF-8" standalone="no"?>
<svg
   xmlns:dc="http://purl.org/dc/elements/1.1/"
   xmlns:cc="http://creativecommons.org/ns#"
   xmlns:rdf="http://www.w3.org/1999/02/22-rdf-syntax-ns#"
   xmlns:svg="http://www.w3.org/2000/svg"
   xmlns="http://www.w3.org/2000/svg"
   version="1.1"
   id="svg7723"
   viewBox="0 0 744.09448819 1052.3622047"
   height="297mm"
   width="210mm">
  <defs
     id="defs7725" />
  <metadata
     id="metadata7728">
    <rdf:RDF>
      <cc:Work
         rdf:about="">
        <dc:format>image/svg+xml</dc:format>
        <dc:type
           rdf:resource="http://purl.org/dc/dcmitype/StillImage" />
        <dc:title></dc:title>
      </cc:Work>
    </rdf:RDF>
  </metadata>
  <g
     id="layer7">
    <path
       id="path7858"
       d="M 58.504185,0.18945295 C 54.744973,0.42513595 40.209191,14.161282 32.717076,21.667969 25.654246,28.744521 18.822923,36.323797 13.902623,45.02734 7.6379932,56.10889 2.0055532,68.21886 0.77176315,80.88867 c -0.94368,9.69061 0.37052005,16.92775 4.56250005,28.84961 2.51826,7.16184 7.7776788,16.00875 12.0742188,23.65234 4.29654,7.64361 7.188178,13.63582 8.111328,13.57032 1.28741,-0.0913 -0.08101,1.69952 8.464844,-7.33008 6.8334,-7.22021 31.506507,-32.38121 32.460937,-32.0625 0.70652,0.23592 3.445626,10.31996 6.978516,18.73437 2.1576,5.13883 4.409515,9.47106 6.421875,13.44336 2.01237,3.9723 5.823595,10.81713 6.134765,10.85743 0.45631,0.059 0.83475,-1.10392 2.3125,-3.47266 1.47774,-2.36875 4.14245,-6.12219 8.28125,-12.66992 4.796773,-7.58865 7.110573,-9.55757 6.548823,-10.33008 -0.7492,-1.03029 -2.45695,-0.51094 -5.199217,-2.54102 -2.742256,-2.03008 -5.235156,-5.13192 -6.732416,-6.92187 -3.45707,-4.13288 -4.48266,-8.10634 -6.57813,-13.07031 C 79.518032,89.52683 76.606269,76.63393 73.250279,63.96875 70.412979,53.26107 69.074539,47.25753 65.844029,31.572266 62.613509,15.887004 60.327771,1.226691 59.107701,0.32812495 c -0.14954,-0.110135 -0.352902,-0.154384 -0.603516,-0.138672 z M 49.539341,17.588169 c 0.911631,0.338132 3.24813,20.449988 7.263527,40.524651 4.015398,20.07467 9.709694,40.112143 9.479777,41.015803 C 65.835651,100.88547 43.620877,122.15723 41.681362,122.12724 39.741846,122.09724 24.220774,105.30233 21.478237,94.1236 16.787521,75.00399 20.565174,66.05719 25.207868,53.15402 30.071006,39.638191 47.759429,16.927983 49.539341,17.588169 Z"
       style="opacity:1;fill:#ffff00;fill-opacity:1;fill-rule:evenodd;stroke:none;stroke-width:1px;stroke-linecap:butt;stroke-linejoin:miter;stroke-opacity:1" />
  </g>
</svg>
