<?xml version="1.0" encoding="UTF-8" standalone="no"?>
<svg
   xmlns:dc="http://purl.org/dc/elements/1.1/"
   xmlns:cc="http://creativecommons.org/ns#"
   xmlns:rdf="http://www.w3.org/1999/02/22-rdf-syntax-ns#"
   xmlns:svg="http://www.w3.org/2000/svg"
   xmlns="http://www.w3.org/2000/svg"
   version="1.1"
   id="svg9212"
   viewBox="0 0 744.09448819 1052.3622047"
   height="297mm"
   width="210mm">
  <defs
     id="defs9214" />
  <metadata
     id="metadata9217">
    <rdf:RDF>
      <cc:Work
         rdf:about="">
        <dc:format>image/svg+xml</dc:format>
        <dc:type
           rdf:resource="http://purl.org/dc/dcmitype/StillImage" />
        <dc:title></dc:title>
      </cc:Work>
    </rdf:RDF>
  </metadata>
  <g
     id="layer9">
    <path
       id="path10595"
       d="m 45.961558,0.28910488 c -0.506,0.02894 -1.00977,1.13476612 -1.00977,1.13476612 0,0 -8.548439,10.284053 -13.099608,15.666016 -4.723547,5.585808 -5.863238,6.621127 -9.066406,11.263671 -6.690678,9.697201 -10.716506,19.878081 -12.410156,31.250001 -1.5338316,10.29882 -0.145293,21.21496 3.214844,31.07031 3.804299,11.158081 10.588601,21.432791 18.607422,30.074221 0.389406,0.41964 0.821491,0.94992 1.390625,1.01172 0.730766,0.0794 1.475126,-0.39086 2.019531,-0.88477 7.402848,-6.71616 11.506628,-9.87336 19.599608,-16.84375 4.04649,-3.48519 9.66686,-8.276231 13.38672,-10.857421 2.2208,-1.541 5.62521,-5.25282 6.66211,-4.62305 0.40221,0.24429 0.28675,0.9194 0.25195,1.38868 -0.30956,4.16792 -2.09854,8.16857 -4.04101,11.869141 -3.21605,6.12685 -7.00004,12.30769 -12.37305,16.66797 -8.1307,6.59819 -18.47072,10.24779 -28.537109,13.13086 -4.486818,1.28505 -17.042106,3.17448 -21.9472656,3.65429 -2.652347,0.25945 -5.149689,0.0965 -6.210937,0.89258 -1.0126,0.75961 -2.14648497,6.81836 -2.14648497,6.81836 1.03170197,1.15101 7.74065797,-0.12894 14.09374957,-0.0859 5.939271,0.0402 12.301107,-1.14879 17.472656,-2.1875 9.317251,-1.87138 18.629641,-4.63194 27.021481,-9.09179 8.32573,-4.42472 16.91241,-9.80201 22.79297,-17.17188 6.69592,-8.39173 12.06344,-18.640781 13.38477,-29.294921 1.43265,-11.55171 -1.78611,-23.62048 -6.31446,-34.34375 C 83.442618,38.338449 73.837268,27.738605 64.586558,18.09188 59.020128,12.28716 53.114498,6.768175 47.160778,1.361411 46.763578,1.000704 46.497218,0.25850488 45.961558,0.28914488 Z M 43.053348,20.673871 c 1.1271,0.203131 3.24408,2.86359 4.80502,4.351589 3.84025,3.660807 12.79857,13.053539 15.90983,16.898409 3.78009,4.6714 8.24025,9.23181 10.44643,14.82143 2.68015,6.79046 3.87038,19.33587 2.76869,21.60742 -0.78862,1.62601 -9.5269,7.97119 -14.98376,12.4872 -5.45687,4.51601 -14.88301,12.453811 -15.90965,12.602651 -1.02665,0.14883 -5.73265,-3.39115 -7.85687,-5.983541 -5.821663,-7.10473 -8.892593,-16.46746 -10.35742,-25.53516 -1.607603,-9.95153 -0.675456,-20.39492 2.217382,-30.05146 2.142027,-7.150274 5.922333,-13.962344 10.817778,-19.591116 0.58592,-0.673688 1.26389,-1.765781 2.14257,-1.607422 z"
       style="opacity:1;fill:#ffff00;fill-opacity:1;fill-rule:evenodd;stroke:none;stroke-width:1px;stroke-linecap:butt;stroke-linejoin:miter;stroke-opacity:1" />
  </g>
</svg>
