<?xml version="1.0" encoding="UTF-8" standalone="no"?>
<svg
   xmlns:dc="http://purl.org/dc/elements/1.1/"
   xmlns:cc="http://creativecommons.org/ns#"
   xmlns:rdf="http://www.w3.org/1999/02/22-rdf-syntax-ns#"
   xmlns:svg="http://www.w3.org/2000/svg"
   xmlns="http://www.w3.org/2000/svg"
   xmlns:sodipodi="http://sodipodi.sourceforge.net/DTD/sodipodi-0.dtd"
   xmlns:inkscape="http://www.inkscape.org/namespaces/inkscape"
   version="1.1"
   id="svg2"
   viewBox="0 0 744.09448819 1052.3622047"
   height="297mm"
   width="210mm"
   inkscape:version="0.91 r13725"
   sodipodi:docname="aries.svg">
  <sodipodi:namedview
     pagecolor="#ffffff"
     bordercolor="#666666"
     borderopacity="1"
     objecttolerance="10"
     gridtolerance="10"
     guidetolerance="10"
     inkscape:pageopacity="0"
     inkscape:pageshadow="2"
     inkscape:window-width="1535"
     inkscape:window-height="876"
     id="namedview7"
     showgrid="false"
     inkscape:zoom="2.6595525"
     inkscape:cx="75.925874"
     inkscape:cy="971.51513"
     inkscape:window-x="65"
     inkscape:window-y="24"
     inkscape:window-maximized="1"
     inkscape:current-layer="svg2" />
  <defs
     id="defs4" />
  <metadata
     id="metadata7">
    <rdf:RDF>
      <cc:Work
         rdf:about="">
        <dc:format>image/svg+xml</dc:format>
        <dc:type
           rdf:resource="http://purl.org/dc/dcmitype/StillImage" />
        <dc:title />
      </cc:Work>
    </rdf:RDF>
  </metadata>
  <g
     id="layer2"
     transform="matrix(0.86978291,-0.49343458,0.49343458,0.86978291,-10.521438,16.561131)">
    <path
       id="path4189"
       d="m 37.311926,29.799349 c 1.80827,1.72794 0.34071,7.495624 0.34071,7.495624 0,0 -9.93749,-0.28575 -19.079769,0.170355 -10.5708278,0.527375 -18.05764181,2.214621 -18.05764181,2.214621 0,0 -0.376556,-2.266303 -0.340711,-3.407106 0.220471,-7.016785 0.162578,-14.557816 3.40710201,-20.783323 2.858083,-5.484014 6.8409858,-10.3126524 12.4359228,-12.9469874 3.823909,-1.80046004 6.545052,-2.95972504 13.287687,-1.533196 6.58185,1.392508 12.97367,4.499524 18.90943,7.665979 9.58873,5.1151464 18.75309,11.2238364 26.9161,18.3983514 8.45853,7.434249 16.25391,15.833603 22.48688,25.212563 7.450964,11.2117 13.355454,23.60871 17.376224,36.45599 5.05243,16.14368 6.80973,33.2239 8.17704,50.08439 0.11934,1.47158 0,4.42923 0,4.42923 0,0 2.84082,-3.73128 4.42923,-5.45136 9.26449,-10.03249 17.74104,-21.58164 29.64179,-28.27895 11.78827,-6.63401 25.67032,-11.20741 39.18168,-10.562 9.69238,0.46299 20.44969,3.30612 27.25682,10.22129 5.922,6.016 8.47647,15.40812 8.51775,23.84972 0.0306,6.24938 -3.35486,12.11883 -6.13278,17.71693 -0.36404,0.73361 -1.36284,2.04426 -1.36284,2.04426 l -27.93824,-14.30983 2.04426,-3.74781 c 0,0 6.75619,1.74774 9.8806,0.68142 2.58853,-0.88343 5.01232,-2.95627 6.13278,-5.45136 1.58184,-3.52251 1.7579,-8.14612 0,-11.58415 -2.29599,-4.49039 -7.40447,-7.51501 -12.26557,-8.85847 -8.89983,-2.45965 -18.79161,-0.39219 -27.59753,2.38497 -9.51169,2.99974 -18.58288,8.20755 -25.89397,14.99125 -7.96664,7.39196 -13.31421,17.3109 -18.39835,26.91611 -6.10719,11.53801 -10.22163,24.05801 -14.30983,36.45599 -0.95764,2.90415 -1.95908,6.72903 -1.95908,6.72903 l -0.42589,3.32192 c 0,0 -10.70815,-3.24847 -10.22131,-5.281 0.57264,-2.39076 0.55157,-4.51293 0.85177,-6.4735 1.65457,-10.80573 4.24246,-27.97211 3.57746,-38.67061 -1.46927,-23.63778 -4.51881,-31.46704 -7.15491,-46.50694 C 98.38296,88.32045 92.889326,73.62674 85.692776,60.12256 78.973476,47.51394 70.868726,35.145342 60.139506,25.710826 52.808296,19.264285 44.262746,12.6932 34.586246,11.400997 30.873116,10.905145 26.07223,11.24098 23.683519,14.126679 c -2.53878,3.066991 -2.930846,8.639751 -0.68142,11.924857 2.292932,3.348643 7.575277,3.115454 11.584147,3.747813 0.89746,0.141566 2.06881,-0.627693 2.72568,0 z"
       style="opacity:1;fill:#ffff00;fill-opacity:1;fill-rule:evenodd;stroke:none;stroke-width:1px;stroke-linecap:butt;stroke-linejoin:miter;stroke-opacity:1"
       inkscape:connector-curvature="0" />
  </g>
</svg>
