<?xml version="1.0" encoding="UTF-8" standalone="no"?>
<svg
   xmlns:dc="http://purl.org/dc/elements/1.1/"
   xmlns:cc="http://creativecommons.org/ns#"
   xmlns:rdf="http://www.w3.org/1999/02/22-rdf-syntax-ns#"
   xmlns:svg="http://www.w3.org/2000/svg"
   xmlns="http://www.w3.org/2000/svg"
   version="1.1"
   id="svg2"
   viewBox="0 0 744.09448819 1052.3622047"
   height="297mm"
   width="210mm">
  <defs
     id="defs4" />
  <metadata
     id="metadata7">
    <rdf:RDF>
      <cc:Work
         rdf:about="">
        <dc:format>image/svg+xml</dc:format>
        <dc:type
           rdf:resource="http://purl.org/dc/dcmitype/StillImage" />
        <dc:title></dc:title>
      </cc:Work>
    </rdf:RDF>
  </metadata>
  <g
     id="layer2">
    <path
       id="path4206"
       d="m 23.268085,98.955235 16.013376,26.234695 -4.769939,2.04426 c 0,0 -6.457426,-6.70799 -12.747404,-1.62088 -3.060558,2.47527 -2.099991,8.47845 0.68142,9.89771 5.624331,2.86992 12.42219,3.13293 17.176633,0.24092 6.11901,-3.72205 8.87911,-9.30804 9.8806,-19.07977 0.83986,-8.19462 -2.65156,-15.88426 -5.81096,-23.608794 -4.86802,-11.90197 -12.42808,-24.48881 -11.945533,-37.33878 0.653727,-17.4084 6.375973,-27.46043 15.531543,-37.63814 7.98966,-8.8816401 19.57698,-15.5126896 31.44085,-16.9150496 13.42501,-1.58689002 25.613889,-0.80251002 36.541169,2.12944 13.94632,3.7419995 21.75395,9.7272596 28.61966,18.3131696 7.49622,9.37439 12.75185,21.72817 12.60628,33.73031 -0.18108,14.93024 -15.02013,38.19857 -16.6948,41.566649 -4.79956,9.652815 -10.90131,20.359675 -9.19918,31.004635 0.85059,5.31953 4.4274,10.78751 9.19918,13.2877 4.62751,2.4246 8.78059,2.55847 12.29981,1.50574 3.76742,-1.12697 6.3538,-3.19278 8.69847,-5.89808 2.60071,-3.00071 2.88166,-7.3149 3.15258,-10.75893 0.21542,-2.73844 -1.32328,-8.35774 -1.32328,-8.35774 l 15.33196,-8.51775 c 0,0 0.0782,5.48135 -0.34071,8.17704 -1.54056,9.91416 -3.16558,17.34372 -8.85846,23.1683 -5.04565,5.16237 -12.56926,8.23831 -19.7612,8.85846 -9.21756,0.79481 -14.36785,-0.66758 -19.76119,-4.76994 -6.51453,-4.95519 -10.65332,-11.43396 -11.92486,-21.46474 -1.31962,-10.4101 2.43949,-20.95276 5.45137,-31.004634 1.84075,-6.14335 11.76665,-27.29003 11.84573,-40.76832 0.0752,-12.82041 -5.94933,-24.00272 -15.25284,-32.14367 C 110.4728,11.462566 97.020161,8.5937459 85.277341,9.6891659 74.303421,10.712866 62.535571,16.252206 55.756011,24.941996 c -9.42428,12.07969 -11.80477,16.52727 -12.04531,32.78731 -0.10553,7.13337 2.91187,13.99646 5.11065,20.78332 2.60648,8.04528 7.79624,15.23374 9.53989,23.509004 1.56955,7.44902 2.95736,15.56319 0.68142,22.82759 -2.11199,6.7411 -6.96263,12.78672 -12.60628,17.03551 -5.71324,4.30118 -12.96346,7.92437 -20.101904,7.49562 C 18.6783,148.9205 9.7966035,145.28432 5.2956219,139.07387 0.70474693,132.73939 -1.2606051,125.05925 1.3774549,117.6943 4.8255509,108.06789 12.16473,104.47665 18.498142,100.65879 c 1.445942,-0.871635 4.769943,-1.703555 4.769943,-1.703555 z"
       style="opacity:1;fill:#ffff00;fill-opacity:1;fill-rule:evenodd;stroke:none;stroke-width:1px;stroke-linecap:butt;stroke-linejoin:miter;stroke-opacity:1" />
  </g>
</svg>
