<?xml version="1.0" encoding="UTF-8" standalone="no"?>
<svg
   xmlns:dc="http://purl.org/dc/elements/1.1/"
   xmlns:cc="http://creativecommons.org/ns#"
   xmlns:rdf="http://www.w3.org/1999/02/22-rdf-syntax-ns#"
   xmlns:svg="http://www.w3.org/2000/svg"
   xmlns="http://www.w3.org/2000/svg"
   version="1.1"
   id="svg11220"
   viewBox="0 0 744.09448819 1052.3622047"
   height="297mm"
   width="210mm">
  <defs
     id="defs11222" />
  <metadata
     id="metadata11225">
    <rdf:RDF>
      <cc:Work
         rdf:about="">
        <dc:format>image/svg+xml</dc:format>
        <dc:type
           rdf:resource="http://purl.org/dc/dcmitype/StillImage" />
        <dc:title></dc:title>
      </cc:Work>
    </rdf:RDF>
  </metadata>
  <g
     id="layer10">
    <path
       id="path11323"
       d="m 32.903458,0.38811362 c -0.58564,0.03758 -1.24117,0.131725 -1.75586,0.125 -5.33551,-0.06967 -13.161987,0.66532798 -19.832029,0.70507798 -3.3350206,0.01987 -5.8174946,-0.110863 -8.0351566,-0.158203 -2.234761,-0.04771 -2.09017,-0.11566196 -2.81054596,-0.10156196 -0.720378,0.0141 0.08726,0.78010996 0.68554596,1.77929696 0.598282,0.999187 2.739904,6.569308 3.279297,8.4707024 2.83705,10.000762 2.024331,20.694423 2.777344,31.062499 1.093195,15.05196 2.402543,30.11202 2.525391,45.20313 0.121381,14.910905 -0.109079,31.239395 -1.767578,44.699215 -0.506427,4.10999 -2.543948,8.21511 -5.228516,11.85743 -0.693843,0.94138 -1.038119,1.23181 -0.876953,1.61132 0.161167,0.37948 0.379897,0.49091 1.49414,0.44141 3.682198,-0.1635 11.9778376,-0.31518 16.8242206,-0.44531 9.82397,-0.26374 19.76965,0.17279 20.11133,-0.33203 0.70721,-1.04487 -2.41343,-3.15799 -4.03125,-6.85157 -1.61782,-3.69359 -2.43926,-7.92225 -3.03907,-11.07812 -1.15526,-6.07837 -0.47143,-28.507585 -0.26367,-35.242195 0.0199,-0.64634 -0.001,-1.0542 0.33008,-1.16797 0.31968,-0.10981 0.44833,0.13701 0.75391,0.74024 1.32299,2.61167 5.0494,8.480445 6.1875,9.910155 7.21561,9.06442 10.98656,10.80889 16.98242,17.42578 5.17469,5.71068 10.20105,11.55577 14.90039,17.67774 1.5623,2.03526 3.5577,4.92888 4.82812,4.95898 1.20466,0.0285 2.98632,-3.76083 4.51563,-5.96875 6.25999,-9.03777 13.95045,-17.05366 19.951172,-26.26562 4.46272,-6.85091 9.63286,-13.600375 11.86914,-21.464855 2.35125,-8.26881 2.35913,-17.23349 1.26172,-25.75976 -0.60836,-4.72663 -2.39134,-9.26694 -4.29297,-13.63672 -2.58731,-5.94542 -5.6655,-11.740493 -9.50586,-16.964843 -5.255952,-7.150079 -9.057802,-10.650059 -18.183592,-19.445313 -2.02573,-1.952352 -3.6081,-4.3464284 -5.39258,-6.5214834 -0.83403,-1.016573 -1.43326,-2.402125 -2.3457,-2.359375 -0.99385,0.04656 -1.69261,1.351408 -2.45313,2.359375 -5.28316,7.0021294 -10.48385,14.0676004 -15.9082,20.9609374 -6.91878,8.792476 -14.28031,17.231672 -21.21484,26.011722 -2.23318,2.8275 -4.66276,8.27091 -5.76172,7.60351 -0.53748,-0.32642 -0.80353,-0.80279 -0.85743,-3.67383 -0.13221,-7.04975 -0.13617,-23.546802 0.0547,-29.18359 0.16846,-4.975133 -0.0606,-10.038853 1.00977,-14.900391 0.4555,-2.068777 2.1503,-7.3840374 3.41797,-9.7167964 0.79283,-1.458956 1.47996,-1.79469596 1.12695,-2.15234298 -0.22988,-0.232895 -0.74444,-0.250473 -1.33008,-0.212891 z M 70.978208,22.909548 c 0.98739,0.01332 2.25402,1.089005 3.12838,1.953175 8.39658,8.298737 15.69452,18.008872 19.48623,29.188962 3.41519,10.06992 4.41426,21.88896 2.93223,32.41846 -1.56234,11.10001 -8.28023,24.609535 -12.12269,31.112065 -0.52093,0.88156 -1.50118,2.58404 -2.32179,2.56313 -1.53547,-0.0391 -4.26094,-2.5002 -7.19084,-4.6349 -4.93195,-3.59337 -10.23693,-8.35975 -15.78314,-14.93482 -10.32117,-12.235825 -10.36629,-13.735055 -11.6375,-23.329455 -1.30512,-9.85028 1.99959,-20.08019 6.08245,-29.13898 3.76831,-8.360911 8.85782,-16.741888 15.39963,-23.71377 0.54614,-0.582042 1.31046,-1.493534 2.02704,-1.483867 z"
       style="opacity:1;fill:#ffff00;fill-opacity:1;fill-rule:evenodd;stroke:none;stroke-width:1px;stroke-linecap:butt;stroke-linejoin:miter;stroke-opacity:1" />
  </g>
</svg>
