<?xml version="1.0" encoding="UTF-8" standalone="no"?>
<svg
   xmlns:dc="http://purl.org/dc/elements/1.1/"
   xmlns:cc="http://creativecommons.org/ns#"
   xmlns:rdf="http://www.w3.org/1999/02/22-rdf-syntax-ns#"
   xmlns:svg="http://www.w3.org/2000/svg"
   xmlns="http://www.w3.org/2000/svg"
   version="1.1"
   id="svg2"
   viewBox="0 0 744.09448819 1052.3622047"
   height="297mm"
   width="210mm">
  <defs
     id="defs4" />
  <metadata
     id="metadata7">
    <rdf:RDF>
      <cc:Work
         rdf:about="">
        <dc:format>image/svg+xml</dc:format>
        <dc:type
           rdf:resource="http://purl.org/dc/dcmitype/StillImage" />
        <dc:title></dc:title>
      </cc:Work>
    </rdf:RDF>
  </metadata>
  <g
     style="display:inline"
     id="layer2">
    <path
       id="path3466"
       d="m 16.867008,0.11863944 c -5.273476,-0.02102 -10.3375433,0.07393 -15.8027344,0.169922 -0.50849402,0.0089 -1.47782802,0.293727 -0.53515602,1.42773396 0.94267202,1.134007 3.15271502,4.566634 4.10546802,7.142578 1.8912451,5.1133276 2.9712101,10.6207896 3.0371101,16.0722656 0.444398,36.764376 0.166261,74.716229 -1.072266,109.107431 -0.106035,2.94437 -0.269771,5.97156 -1.2500001,8.75 -0.852477,2.41633 -2.945661,5.60773 -3.927734,6.875 -0.60683902,0.78306 0.617063,2.20742 1.607422,2.23242 9.2075234,0.23209 20.3655614,0.10272 29.2851544,-0.17969 0.38095,-0.0121 0.68045,-0.513 0.71485,-0.89258 0.0793,-0.87527 -0.83504,-1.77559 -0.97461,-2.25976 -0.14746,-0.51156 -0.2942,-1.31924 0.16992,-1.58008 0.62485,-0.35116 1.74099,0.0127 2.41015,0.26953 1.74495,0.6698 2.82901,2.48842 4.46485,3.39258 0.6205,0.34296 1.58639,0.86537 1.85351,0.26758 0.918,-2.05437 1.76737,-3.85541 3.03516,-5.53516 6.61887,-8.76957 13.87962,-17.55039 21.18359,-25.44727 0.48669,-0.52619 1.60991,-0.65732 2.14258,-0.17773 14.25091,12.83089 14.30362,13.76052 44.464848,33.75 0.71558,0.47425 1.87854,-0.61284 2.14257,-1.42969 2.51312,-7.77495 5.46246,-16.9591 8.39258,-26.07031 0.19712,-0.61293 -0.96359,-1.06727 -1.60742,-1.07227 -9.83233,-0.0802 -18.04025,-4.27026 -25.892578,-8.92773 -1.46443,-0.8686 -14.98022,-10.96919 -15.23047,-11.91406 -0.24808,-0.93668 -0.13471,-1.39077 0.40821,-2.19336 1.76445,-2.608392 6.84185,-8.802692 10,-13.392582 4.21053,-6.11935 8.82698,-12.077 11.912108,-18.833983 3.14565,-6.88957 6.58448,-14.3536 6.55468,-21.753911 -0.0266,-6.608162 -2.4822,-12.958598 -6.14453,-19.056641 -3.662328,-6.098043 -13.142648,-13.509972 -16.072258,-16.25 -2.5551,-2.389756 -4.5792,-6.0237866 -5.85157,-8.7128896 -0.3312,-0.699984 -1.00312,-1.139671 -2.00586,-0.214844 -6.37934,5.883649 -10.81414,9.4182756 -17.94531,15.7148436 -5.16356,4.559237 -12.00292,9.826174 -16.51758,16.070312 -3.08963,4.273207 -6.05391,8.858698 -7.5,13.929688 -1.32473,4.645412 -0.31733,12.906112 -0.66992,14.552732 -0.35258,1.64661 -0.96983,1.10966 -1.65234,1.16016 -1.83169,0.13542 -2.92932,0.1161 -5.43555,-0.125 -0.54626,-0.0525 -0.98819,-0.57624 -0.99219,-1.125 -0.1238,-15.384943 -0.77653,-31.462661 1.14454,-47.373049 0.3849,-3.187775 3.37508,-10.9852416 6.5332,-13.6972646 0.65128,-0.559282 -0.57075,-2.09235796 -1.42774,-2.14257796 -6.29805,-0.369065 -11.781207,-0.506326 -17.054684,-0.527344 z M 63.792792,22.630357 c 0.45028,-3.26e-4 0.88811,0.10865 1.19922,0.335938 13.26804,9.693322 15.48407,11.112246 21.42968,22.679688 4.71696,9.177052 1.58839,21.205342 -1.96484,30.892585 -4.70276,12.8212 -5.65288,14.8107 -9.46484,20.17773 -1.17541,1.65491 -1.69732,1.57468 -3.03516,0.17969 -6.73016,-7.01766 -12.1706,-15.72651 -15.17773,-25.000003 -2.70801,-8.35106 -3.18615,-17.53286 -2.14454,-26.250002 0.92235,-7.719045 3.21127,-14.341104 7.32227,-22.142579 0.29936,-0.568099 1.08547,-0.872503 1.83594,-0.873047 z m -35.24331,53.658491 c 2.57777,0.0991 6.00926,0.0955 8.04549,0.15568 0.68486,0.0203 0.88869,0.6982 1.11188,1.34599 2.77684,8.05966 5.47278,12.87595 9.59766,18.56055 4.12488,5.684602 8.07701,10.862712 12.75195,16.162102 0.41871,0.47464 0.53298,1.40901 0.12695,1.89454 -7.54022,9.01667 -15.12047,17.26842 -23.35937,25.50586 -0.60306,0.60295 -3.01277,2.10193 -5.5706,3.56696 -0.64766,0.37097 -1.41422,0.0821 -1.63503,-0.63086 -0.9511,-3.07091 -1.56263,-7.57995 -1.88617,-11.14314 -0.82623,-9.09952 -0.58351,-18.17478 -0.57924,-27.3111 0.004,-8.727572 -0.26754,-17.762992 0.0734,-26.604912 0.0321,-0.83355 0.48955,-1.53373 1.3231,-1.50167 z"
       style="opacity:1;fill:#ffff00;fill-opacity:1;fill-rule:evenodd;stroke:none;stroke-width:1px;stroke-linecap:butt;stroke-linejoin:miter;stroke-opacity:1" />
  </g>
</svg>
