<?xml version="1.0" encoding="UTF-8" standalone="no"?>
<svg
   xmlns:dc="http://purl.org/dc/elements/1.1/"
   xmlns:cc="http://creativecommons.org/ns#"
   xmlns:rdf="http://www.w3.org/1999/02/22-rdf-syntax-ns#"
   xmlns:svg="http://www.w3.org/2000/svg"
   xmlns="http://www.w3.org/2000/svg"
   version="1.1"
   id="svg4155"
   viewBox="0 0 744.09448819 1052.3622047"
   height="297mm"
   width="210mm">
  <defs
     id="defs4157" />
  <metadata
     id="metadata4160">
    <rdf:RDF>
      <cc:Work
         rdf:about="">
        <dc:format>image/svg+xml</dc:format>
        <dc:type
           rdf:resource="http://purl.org/dc/dcmitype/StillImage" />
        <dc:title></dc:title>
      </cc:Work>
    </rdf:RDF>
  </metadata>
  <g
     id="layer2">
    <path
       id="path4846"
       d="m 35.966212,0.10392087 c -2.0254,0.09535 -4.89347,0.561133 -7.11133,0.703125 C 19.647353,1.3965318 10.855992,1.1782968 1.2591808,0.63712387 0.54355475,0.59676387 -0.19212225,1.7689948 0.16738375,2.3890768 4.7973938,10.374984 5.6497758,15.495614 6.1751958,22.592204 c 1.411426,19.06343 1.109675,37.97096 1.560547,56.749997 0.450872,18.77904 1.150128,36.389249 -0.488281,55.037109 -0.19838,2.2579 -0.828708,4.24361 -2.378906,6.13867 -0.341866,0.41792 0.222832,1.37323 0.771484,1.36133 5.4913272,-0.119 9.6402102,-0.56831 14.4648442,-0.53711 4.767755,0.0308 9.867608,0.47166 14.285158,0.71484 0.58836,0.0324 0.92298,-0.64676 0.89258,-0.9375 -0.17185,-1.64113 -1.37099,-2.96296 -1.96289,-4.41992 -0.88033,-2.16692 -1.62639,-4.38591 -1.67579,-6.78516 -0.0328,-1.59392 0.3428,-1.79015 1.67579,-1.78515 8.44061,0.0329 16.17403,0.21124 24.64257,0.53515 0.79356,0.0303 1.71205,0.0246 2.32032,0.53516 5.86289,4.92105 10.89052,9.28325 16.25,13.92969 0.85925,0.74493 2.64571,0.50014 3.39257,-0.35742 3.18596,-3.65817 6.41075,-7.37853 9.82227,-11.42969 3.56432,-4.23261 6.889,-8.89433 8.75,-14.10547 2.301818,-6.44552 4.260248,-13.72095 2.867188,-20.421879 -2.280738,-10.97094 -3.360638,-13.3033 -12.152348,-24.57812 -5.16506,-6.62387 -15.60345,-13.783467 -19.10742,-16.429687 -0.6175,-0.46634 -0.29977,-1.60693 0,-2.32031 5.75054,-13.68482 11.67638,-26.95969 18.16992,-40.53711 0.33485,-0.70014 1.05448,-1.36549 1.83008,-1.33789 8.1318,0.28962 17.383458,0.88747 24.687498,1.42773 0.5037,0.0373 0.98528,-0.52767 1.20508,-0.98242 0.81213,-1.68025 1.60892,-3.3488302 2.14258,-5.5351502 0.12142,-0.49744 -0.38114,-1.2251 -0.89258,-1.25 -13.06901,-0.636079 -25.848528,-1.588974 -38.749998,-2.679692 -3.57648,-0.302364 -7.61842,-0.85469 -11.0625,-1.070312 -0.82531,-0.05167 -1.40421,0.5212 -1.79492,1.25 -8.29061,15.4644742 -14.26366,27.0124142 -24.74219,47.2578142 -0.2817,0.54426 -0.54064,0.71123 -0.94336,0.79883 -0.95775,0.20826 -5.03404,0.25845 -7.07226,-0.11524 -0.87822,-0.16102 -0.97279,-0.35505 -1.05469,-1.24414 -0.74746,-8.11633 -0.82037,-17.58787 -0.65235,-25.98242 0.0872,-4.35455 -0.12546,-8.77044 1.01954,-12.97266 0.87476,-3.2104402 2.96701,-5.7973512 4.65429,-8.8027312 0.3152,-0.561421 -0.23968,-1.63770193 -0.88281,-1.60742193 z M 32.429102,54.894934 c 2.55586,-0.43936 5.02561,-0.2871 7.45117,0.25391 7.19516,1.60486 14.51623,4.17578 20.32813,8.71094 5.75407,4.490027 10.51332,10.662827 13.25781,17.425777 2.63051,6.48208 4.15822,14.07807 2.9042,20.960249 -1.1576,6.35303 -4.63113,12.63245 -9.34365,17.04756 -2.88782,2.70557 -9.17591,4.80682 -10.85938,4.79688 -7.00849,-0.0414 -15.23963,-0.34316 -22.22188,-0.63018 -0.77547,-0.0319 -1.20817,-0.61513 -1.26249,-1.38936 -0.77935,-11.10747 -1.00123,-22.354079 -1.13672,-33.587889 -0.12839,-10.64584 -0.67824,-21.00043 -0.50586,-31.945307 0.0113,-0.71689 0.68207,-1.52111 1.38867,-1.64258 z"
       style="opacity:1;fill:#ffff00;fill-opacity:1;fill-rule:evenodd;stroke:none;stroke-width:1px;stroke-linecap:butt;stroke-linejoin:miter;stroke-opacity:1" />
  </g>
</svg>
