<?xml version="1.0" encoding="UTF-8" standalone="no"?>
<svg
   xmlns:dc="http://purl.org/dc/elements/1.1/"
   xmlns:cc="http://creativecommons.org/ns#"
   xmlns:rdf="http://www.w3.org/1999/02/22-rdf-syntax-ns#"
   xmlns:svg="http://www.w3.org/2000/svg"
   xmlns="http://www.w3.org/2000/svg"
   version="1.1"
   id="svg2"
   viewBox="0 0 744.09448819 1052.3622047"
   height="297mm"
   width="210mm">
  <defs
     id="defs4" />
  <metadata
     id="metadata7">
    <rdf:RDF>
      <cc:Work
         rdf:about="">
        <dc:format>image/svg+xml</dc:format>
        <dc:type
           rdf:resource="http://purl.org/dc/dcmitype/StillImage" />
        <dc:title></dc:title>
      </cc:Work>
    </rdf:RDF>
  </metadata>
  <g
     id="layer2">
    <path
       id="path4215"
       d="m 67.486747,0.21283623 c -0.37393,-0.0016 -0.74809,0.102116 -1.00782,0.316407 -4.15395,3.42726797 -5.33743,4.23185697 -8.33398,5.80859297 -8.02939,4.2249348 -13.8762,7.9586288 -19.94922,13.2578138 -2.74173,2.39237 -6.13529,4.205883 -8.20703,7.197265 -1.56226,2.255747 -2.6002,4.353012 -3.2207,7.261718 -0.13172,0.61745 -0.59396,1.39852 -1.19922,1.57813 -0.6066,0.18001 -1.3469,0.19001 -1.89453,-0.12696 -0.39403,-0.22806 -0.73302,-0.68213 -0.75782,-1.13672 -0.29279,-5.366651 -0.45255,-10.666811 -0.46875,-16.013668 -0.007,-2.399467 -0.27311,-4.869815 0.2168,-7.21875 0.60486,-2.9000638 2.06054,-5.9216958 3.20898,-8.1406248 0.34445,-0.665532 -0.37566,-1.57687 -1.12109,-1.5 -2.38225,0.245653 -5.74979,0.708795 -8.365234,0.890624 -4.95907,0.344768 -10.3133407,0.321814 -14.8105477,0.542969 -0.72326399,0.03557 -1.75084502,1.233601 -1.26171799,1.767578 2.18038399,2.38031 3.70327799,7.1985028 4.69726499,11.0878918 1.777433,6.954952 1.656396,14.267691 2.142578,21.42969 1.573165,23.1759 2.775825,46.41498 2.5,69.642577 -0.09488,7.98983 0.8627467,16.27266 -1.427734,23.92773 -0.787293,2.63123 -1.27513,5.61197 -3.392578,6.96484 -1.138113,0.72715 -0.511705,2.41684 1.382812,2.00977 3.024137,-0.64979 3.461723,-0.7019 5.8496107,-0.9375 4.098012,-0.40433 8.318116,-1.20314 12.945316,-0.84961 1.51608,0.11583 1.62928,-0.88266 1.29492,-1.5625 -1.81339,-3.68705 -2.56403,-3.53524 -3.52735,-7.05273 -1.60862,-5.87379 -1.79503,-13.12703 -2.00781,-20.49219 -0.0146,-0.50486 0.47087,-1.05671 0.9375,-1.25 0.60492,-0.25055 0.95758,-0.16065 1.5625,0.0898 0.5444,0.2255 1.10544,0.77503 1.38281,1.29492 3.55185,6.65732 5.29408,10.72334 13.92969,15.89258 7.13427,4.27054 9.99761,5.72552 19.28516,13.57227 0.65106,0.55006 1.80987,0.62783 2.54883,0.20312 14.17532,-8.14703 17.8488,-10.21272 27.77929,-16.66797 5.84395,-3.79882 11.21485,-11.38355 12.753913,-18.18164 1.93569,-8.549997 -0.86242,-16.761527 -5.429693,-24.244137 -4.47608,-7.33321 -16.06801,-14.86692 -19.79297,-16.32031 -0.43842,-0.17105 -0.4534,-1.02234 -0.0312,-1.23047 5.6886,-2.80533 10.69925,-5.1599 14.89844,-9.21875 3.81906,-3.69142 7.8005,-8.04901 8.83984,-13.25781 0.982053,-4.92172 -0.47299,-10.382934 -2.90429,-14.773439 -3.15915,-5.704878 -8.70022,-9.934054 -14.26758,-13.384765 -4.96708,-3.0786528 -7.79637,-6.1757988 -13.76367,-10.85937577 -0.26488,-0.207893 -0.63975,-0.314807 -1.01367,-0.316407 z M 55.842207,13.466744 c 0.35883,-0.01132 0.70672,0.08456 0.91407,0.322265 6.03462,6.918239 10.99665,9.708841 15.40625,12.373047 4.73922,2.863362 9.54506,6.811943 11.49023,11.996097 1.61343,4.30001 2.21964,10.16412 -0.63281,13.76367 -2.90954,3.6716 -5.35676,5.81974 -9.97461,8.20703 -0.56592,0.29256 -1.28824,0.44758 -1.89453,0.25195 -8.65176,-2.79172 -15.32276,-5.59241 -22.34961,-10.60547 -4.90323,-3.49804 -8.00014,-10.13954 -8.08008,-16.1621 -0.066,-4.97076 2.68372,-10.113985 6.3125,-13.511724 2.14354,-2.007057 3.43394,-2.927719 7.83008,-6.3125 0.24993,-0.192433 0.61969,-0.310947 0.97851,-0.322265 z m -31.00781,33.568359 c 0.42563,0.16024 0.60876,0.71987 0.71485,1.16211 1.4286,5.95527 4.45529,9.77536 8.03515,13.66016 3.74866,4.06798 7.59537,7.30977 12.9074,9.17392 1.39093,0.48812 1.42225,1.4112 0.39534,1.98623 -5.71458,3.19994 -8.77584,5.357 -12.41016,8.92969 -3.12412,3.07115 -5.68641,6.01575 -7.54175,10.25105 -0.24031,0.54858 -0.52421,1.81659 -1.11841,1.89153 -1.51523,0.1911 -2.54932,0.17671 -3.70824,0.0729 -0.55957,-0.0502 -1.11147,-0.094 -1.11402,-1.14512 -0.038,-15.667 0.0882,-28.7679 -0.44643,-45.0452 -0.0139,-0.42266 0.5178,-1.06572 0.93778,-1.11524 1.15557,-0.13624 2.36531,-0.19213 3.34849,0.17802 z m 27.5957,26.94922 c 0.22313,-0.0196 0.4466,-0.0108 0.66407,0.0332 8.13075,1.64318 11.62928,2.36858 16.92187,5.05078 6.95107,3.52269 13.26519,10.24342 15.15039,17.80469 1.89735,7.610027 0.0801,17.048657 -5.05078,22.980467 -2.22616,2.57366 -4.09433,3.2598 -7.38672,5.11523 -1.27943,0.72101 -1.58361,0.75455 -2.20898,0.18946 -4.23809,-3.82955 -6.73905,-6.3732 -10.48047,-9.0918 -3.49795,-2.54169 -8.02105,-3.66912 -11.11133,-6.69336 -3.77199,-3.69137 -7.54984,-8.18435 -8.46094,-13.382807 -0.811,-4.62731 1.2346,-9.3168 3.47266,-13.44727 1.57409,-2.90506 4.04429,-5.71166 6.63086,-7.76758 0.52104,-0.41414 1.19,-0.73216 1.85937,-0.79101 z"
       style="opacity:1;fill:#ffff00;fill-opacity:1;fill-rule:evenodd;stroke:none;stroke-width:1px;stroke-linecap:butt;stroke-linejoin:miter;stroke-opacity:1" />
  </g>
</svg>
