<?xml version="1.0" encoding="UTF-8" standalone="no"?>
<svg
   xmlns:dc="http://purl.org/dc/elements/1.1/"
   xmlns:cc="http://creativecommons.org/ns#"
   xmlns:rdf="http://www.w3.org/1999/02/22-rdf-syntax-ns#"
   xmlns:svg="http://www.w3.org/2000/svg"
   xmlns="http://www.w3.org/2000/svg"
   version="1.1"
   id="svg4272"
   viewBox="0 0 744.09448819 1052.3622047"
   height="297mm"
   width="210mm">
  <defs
     id="defs4274" />
  <metadata
     id="metadata4277">
    <rdf:RDF>
      <cc:Work
         rdf:about="">
        <dc:format>image/svg+xml</dc:format>
        <dc:type
           rdf:resource="http://purl.org/dc/dcmitype/StillImage" />
        <dc:title></dc:title>
      </cc:Work>
    </rdf:RDF>
  </metadata>
  <g
     id="layer2">
    <path
       id="path4342"
       d="m 30.050498,0.06127825 c 0,0 11.19642,14.07180375 17.69652,19.95141475 6.23556,5.640318 20.47443,16.037073 20.47443,16.037073 L 46.278838,69.799764 23.957411,103.54976 c 0,0 9.757576,8.98068 15.100887,13.55348 5.32826,4.55991 19.89911,10.01795 19.89911,10.01795 l -26.071427,24.28572 c 0,0 -11.709994,-17.91513 -17.186184,-24.28418 -5.47619,-6.36905 -15.67095613,-13.93011 -15.67095613,-13.93011 0,0 16.19418913,-20.277706 23.21799713,-31.111036 7.023808,-10.83333 18.92485,-33.888961 18.92485,-33.888961 0,0 -10.360644,-8.964679 -16.551119,-13.131345 C 19.430095,30.894611 5.0288409,23.192623 5.0288409,23.192623 Z"
       style="opacity:1;fill:#ffff00;fill-opacity:1;fill-rule:evenodd;stroke:none;stroke-width:1px;stroke-linecap:butt;stroke-linejoin:miter;stroke-opacity:1" />
  </g>
</svg>
