<?xml version="1.0" encoding="UTF-8" standalone="no"?>
<svg
   xmlns:dc="http://purl.org/dc/elements/1.1/"
   xmlns:cc="http://creativecommons.org/ns#"
   xmlns:rdf="http://www.w3.org/1999/02/22-rdf-syntax-ns#"
   xmlns:svg="http://www.w3.org/2000/svg"
   xmlns="http://www.w3.org/2000/svg"
   version="1.1"
   id="svg2"
   viewBox="0 0 744.09448819 1052.3622047"
   height="297mm"
   width="210mm">
  <defs
     id="defs4" />
  <metadata
     id="metadata7">
    <rdf:RDF>
      <cc:Work
         rdf:about="">
        <dc:format>image/svg+xml</dc:format>
        <dc:type
           rdf:resource="http://purl.org/dc/dcmitype/StillImage" />
        <dc:title></dc:title>
      </cc:Work>
    </rdf:RDF>
  </metadata>
  <g
     id="layer2">
    <path
       id="path3431"
       d="m 72.666368,0.22091661 c -0.68619,0.05215 -0.9179,0.40090299 -0.57227,1.22265599 0.6363,1.5128 0.7413,2.293614 1.04883,3.458984 1.11751,4.234685 1.24576,7.9449714 -0.89258,10.8945314 -2.86497,3.951849 -5.45515,7.641253 -10,11.605469 -1.48192,1.292597 -1.75871,1.167805 -3.21484,0.357422 -13.66934,-7.607407 -21.08175,-15.093357 -31.69727,-25.7128914 -1.75701,-1.75767299 -3.67638,-2.26934399 -6.51757,0.445313 -5.79957,5.541295 -10.06177,9.8225754 -15.5351599,15.6250004 -0.59785,0.633786 -0.42831,2.213356 0.35742,2.589844 13.1364799,6.294463 18.2226599,8.382856 34.6425799,19.552734 1.71436,1.16621 1.92516,1.4628 1.07227,2.67969 -7.62159,10.87437 -20.71485,29.46289 -20.71485,29.46289 L 1.0003521,100.43967 c 0,0 -1.48458896,1.75908 -0.357422,2.5 11.2937979,7.42378 25.7712679,15.73385 40.1777379,30.71289 0.86748,0.90196 3.0242,1.19913 3.75,0.17969 4.48101,-6.29393 7.00635,-8.33938 10.89257,-12.14258 4.76657,-4.66473 10.34013,-9.22092 15.17969,-13.03711 1.20567,-0.95072 2.23668,-1.232 2.14258,0.35742 -0.26205,4.42481 -0.30033,8.7765 -1.25,13.03711 -0.96257,4.31845 -1.58634,8.32292 -4.46484,12.5 -0.84539,1.22677 -0.268,1.93339 0.89257,1.96289 8.26027,0.20989 18.39129,1.24683 27.85743,2.14258 1.33202,0.12605 1.23451,-0.86887 0.89257,-1.25 -3.81499,-4.25225 -5.79092,-10.96339 -6.07031,-16.96289 -0.76928,-16.5193 -0.11167,-29.532181 0.35742,-44.287111 0.68197,-21.45078 1.39344,-42.516023 3.57032,-64.285158 0.29283,-2.9283744 1.70191,-6.0606884 3.23632,-8.2148444 0.20476,-0.287466 0.004,-1.382774 -1.27148,-1.427734 -5.16418,-0.181998 -7.93744,-0.06685 -12.04297,-0.435547 -3.58703,-0.322136 -7.49716,-1.074398 -10.99219,-1.52929699 -0.32474,-0.04227 -0.60525,-0.05645 -0.83398,-0.03906 z M 70.849958,27.44162 c 1.45928,-1.792106 2.67494,-1.258716 2.65039,0.253906 -0.54659,33.683243 -0.64808,40.089153 -1.38867,72.224618 -0.0273,1.183046 -0.23332,1.337806 -1.13672,2.021476 -4.70487,3.56055 -8.89568,6.40436 -13.76172,10.60547 -0.86101,0.74336 -1.20322,1.20401 -3.41015,0.12695 -13.63913,-6.65639 -17.85005,-9.25988 -30.55664,-17.171871 -1.46372,-0.91141 -1.44783,-1.30268 0,-3.41016 8.93265,-13.00247 14.70074,-21.75235 22.47656,-32.32422 8.0864,-10.99412 13.63939,-18.21857 25.12695,-32.326169 z"
       style="opacity:1;fill:#ffff00;fill-opacity:1;fill-rule:evenodd;stroke:none;stroke-width:1px;stroke-linecap:butt;stroke-linejoin:miter;stroke-opacity:1" />
  </g>
</svg>
