<?xml version="1.0" encoding="UTF-8" standalone="no"?>
<svg
   xmlns:dc="http://purl.org/dc/elements/1.1/"
   xmlns:cc="http://creativecommons.org/ns#"
   xmlns:rdf="http://www.w3.org/1999/02/22-rdf-syntax-ns#"
   xmlns:svg="http://www.w3.org/2000/svg"
   xmlns="http://www.w3.org/2000/svg"
   version="1.1"
   id="svg2"
   viewBox="0 0 744.09448819 1052.3622047"
   height="297mm"
   width="210mm">
  <defs
     id="defs4" />
  <metadata
     id="metadata7">
    <rdf:RDF>
      <cc:Work
         rdf:about="">
        <dc:format>image/svg+xml</dc:format>
        <dc:type
           rdf:resource="http://purl.org/dc/dcmitype/StillImage" />
        <dc:title></dc:title>
      </cc:Work>
    </rdf:RDF>
  </metadata>
  <g
     id="layer2">
    <path
       id="path4341"
       d="m 79.712671,0.07009075 c -1.26854,-0.0276 -2.43035,0.652207 -3.6582,2.55078095 -4.46774,6.90825 -6.68134,10.6986663 -11.11133,16.1621053 -2.09738,2.58667 -6.05495,4.04778 -9.34571,3.53711 -12.96182,-2.01139 -21.797207,-8.30189 -32.025387,-17.9902313 -2.464692,-2.334603 -4.040284,-3.137706 -6.539062,0.08984 -4.091163,5.284352 -7.8457806,8.7657513 -13.4277346,13.9336013 -1.699375,1.5733 -0.411101,1.63283 0.623047,2.03515 9.2731066,3.60744 20.7871356,8.59297 33.1874966,14.5586 1.63907,0.78853 2.6048,1.44006 1.76758,3.02929 -13.275851,25.20045 -24.58917,47.97626 -38.8906236,70.205083 -0.592105,0.92031 0.444422,2.56456 1.261719,3.03125 13.8321126,7.89822 21.4468066,15.64402 31.5683586,25.50586 0.657329,0.64046 1.147332,1.63533 1.900386,1.99219 0.76451,0.36224 2.15115,0.4335 2.8379,-0.0606 0,0 1.02974,-0.66588 1.58984,-1.20312 5.21815,-5.00511 9.8509,-8.52842 16.08008,-12.95313 0.52265,-0.37126 1.23051,-0.53916 1.92383,0.60156 0.93578,1.53965 1.27593,3.36214 2.68945,4.55274 3.15744,2.65946 7.518,4.52382 11.61719,4.29297 0.98374,-0.0554 2.02735,0.37076 2.77734,1.00976 1.14482,0.9754 2.74838,3.08478 4.38281,2.79297 1.17779,-0.21026 2.10321,-1.18271 2.00391,-2.375 -0.0743,-0.89175 -1.59147,-2.10123 -1.92969,-2.92969 -0.41484,-1.01615 -0.41328,-1.99446 0.3418,-2.79101 3.34972,-3.53367 3.36258,-9.56861 -1.76758,-12.62695 -3.03985,-1.8122 -5.24804,-0.16971 -6.16602,2.125 -0.61112,1.52762 3.34731,3.21005 3.47657,4.88867 0.18194,2.36294 -1.69009,4.66024 -4.21875,4.92969 -3.55132,0.37839 -6.43416,-3.57558 -6.77344,-7.13086 -0.73647,-7.71734 4.15615,-14.93832 9.16602,-20.61719 7.89866,-8.953433 19.80791,-14.791053 30.021479,-19.044923 0.69938,-0.29129 0.6747,-1.92884 0,-2.27344 -10.009299,-5.11239 -18.022249,-9.66194 -26.642579,-15.6582 -0.82926,-0.57684 -1.93102,-0.68816 -0.94726,-2.39844 6.25018,-10.86612 26.026739,-31.24827 39.710929,-45.330084 1.69026,-1.739378 1.08678,-2.582426 -0.75781,-3.03125 C 104.94531,11.170143 93.682111,7.2455477 84.009541,1.7692547 82.356601,0.83341173 80.981211,0.09763975 79.712671,0.07003675 Z M 62.132591,24.486107 c 8.72735,-2.86265 19.78678,-0.73998 27.32227,3.57031 2.27212,1.29965 2.34702,2.01023 0.89257,3.75 -6.52051,7.79964 -14.47516,17.76416 -22.05755,26.50132 -5.02355,5.78862 -10.45811,10.64147 -16.6461,16.78096 -0.4308,0.42742 -0.1561,1.15764 0.82096,1.50704 5.51162,1.97098 11.96723,5.02029 20.02527,9.3181 2.22744,1.18802 1.92356,1.79605 0.71485,3.39258 -6.7829,8.95918 -13.17406,15.888803 -16.60743,30.179693 -0.51413,2.13999 -0.79479,2.58224 -2.32226,1.60547 -11.06337,-7.07472 -20.802119,-14.10865 -35.387082,-25.016973 -0.811604,-0.60701 -0.251694,-1.88964 0.245241,-2.77295 10.205103,-18.13972 19.334061,-37.43085 30.321531,-56.67297 2.90159,-5.08149 7.11763,-10.31882 12.67773,-12.14258 z"
       style="opacity:1;fill:#ffff00;fill-opacity:1;fill-rule:evenodd;stroke:none;stroke-width:1px;stroke-linecap:butt;stroke-linejoin:miter;stroke-opacity:1" />
  </g>
</svg>
