<?xml version="1.0" encoding="UTF-8" standalone="no"?>
<svg
   xmlns:dc="http://purl.org/dc/elements/1.1/"
   xmlns:cc="http://creativecommons.org/ns#"
   xmlns:rdf="http://www.w3.org/1999/02/22-rdf-syntax-ns#"
   xmlns:svg="http://www.w3.org/2000/svg"
   xmlns="http://www.w3.org/2000/svg"
   version="1.1"
   id="svg8500"
   viewBox="0 0 744.09448819 1052.3622047"
   height="297mm"
   width="210mm">
  <defs
     id="defs8502" />
  <metadata
     id="metadata8505">
    <rdf:RDF>
      <cc:Work
         rdf:about="">
        <dc:format>image/svg+xml</dc:format>
        <dc:type
           rdf:resource="http://purl.org/dc/dcmitype/StillImage" />
        <dc:title></dc:title>
      </cc:Work>
    </rdf:RDF>
  </metadata>
  <g
     id="layer8">
    <path
       id="path8603"
       d="m 43.804126,0.13922991 c -0.3016,-0.0074 -0.60815,0.154602 -1.09961,0.482422 -5.36976,3.58182499 -11.46779,6.78624599 -17.08398,10.36914009 -10.05575,6.415152 -12.28924,8.102114 -19.6972702,18.310547 -5.39651997,7.436527 -7.14032,18.619841 -3.78906,27.400391 4.12311,10.80286 19.6556802,19.4546 25.7597702,23.23242 1.29139,0.79924 1.27842,1.26078 1.26172,1.51562 -0.023,0.35037 -1.14525,0.89147 -1.76758,1.26172 -8.61265,5.12411 -18.0476902,11.51922 -20.9609402,20.96094 -4.38965,14.22665 -0.27394,16.9687 4.2929702,23.48633 4.10741,5.86186 29.29492,19.95117 29.29492,19.95117 0,0 1.55096,1.21794 2.47852,1.27734 0.99987,0.0641 2.82422,-1.02539 2.82422,-1.02539 0,0 11.75491,-6.68058 17.42578,-10.35351 9.03335,-5.85076 14.14799,-10.11805 15.91015,-13.13282 5.4937,-9.39886 7.090067,-15.17433 4.04102,-25.75781 -2.77012,-9.6153 -10.47613,-15.67365 -20.56836,-22.30664 -0.42208,-0.27741 -1.18055,-0.81701 -1.18555,-1.3418 -0.005,-0.52478 2.32362,-1.95082 2.74805,-2.22461 0.81369,-0.52487 11.7307,-7.88885 15.57227,-15.09765 4.03672,-7.57495 6.322407,-16.94989 3.9375,-25.19531 -1.95859,-6.771421 -13.63672,-16.16211 -13.63672,-16.16211 0,0 -17.88029,-10.1166201 -24.6836,-15.11523409 -0.47607,-0.349787 -0.77262,-0.527736 -1.07422,-0.535156 z M 33.954516,13.516183 c 0.66566,0.01576 1.67967,2.006728 3.31446,3.787109 1.63479,1.780381 3.89037,3.350172 5.52343,4.546875 4.04304,2.962729 9.17434,4.258427 13.13282,7.324219 3.95848,3.065792 8.74519,6.123685 10.35351,10.859374 2.28689,6.73371 0.50076,14.66486 -2.27343,21.21289 -1.5389,3.63234 -5.77642,7.83342 -7.19727,8.65039 -0.66625,0.38309 -7.44266,-2.49688 -11.2168,-3.53516 -4.68849,-1.28981 -9.98614,-2.17528 -11.63672,-2.84179 -6.66979,-2.69327 -13.51907,-9.91539 -15.6582,-17.42579 -2.22533,-7.81303 0.0441,-17.06616 4.29297,-23.990227 2.48346,-4.047111 9.59041,-8.6299 11.36523,-8.58789 z m 0.24219,71.255857 c 0.81664,-0.45779 1.36129,0.6435 5.80274,2.41211 5.49903,2.18975 11.44941,3.46011 16.51757,6.51758 4.53619,2.73655 9.43327,5.75374 12.05469,10.35742 1.86907,3.28242 2.55945,7.42998 1.96485,11.16015 -0.62666,3.9313 -3.15298,7.41475 -5.625,10.53516 -2.04299,2.57885 -4.86881,4.4305 -7.41211,6.51758 -0.98476,0.80811 -2.07377,2.09978 -3.03516,2.09905 -0.98816,-7.6e-4 -4.22054,-3.96992 -6.69727,-5.57952 -3.11435,-2.02399 -6.81667,-2.97321 -10.08789,-4.73242 -4.02359,-2.16382 -8.99423,-3.45951 -11.69726,-7.14258 -3.13925,-4.27744 -4.66169,-10.24542 -3.61664,-15.44727 0.75782,-3.77209 2.99724,-7.36247 5.40179,-10.53515 1.79308,-2.36588 5.64865,-5.72428 6.42969,-6.16211 z"
       style="opacity:1;fill:#ffff00;fill-opacity:1;fill-rule:evenodd;stroke:none;stroke-width:1px;stroke-linecap:butt;stroke-linejoin:miter;stroke-opacity:1" />
  </g>
</svg>
