<?xml version="1.0" encoding="UTF-8" standalone="no"?>
<svg
   xmlns:dc="http://purl.org/dc/elements/1.1/"
   xmlns:cc="http://creativecommons.org/ns#"
   xmlns:rdf="http://www.w3.org/1999/02/22-rdf-syntax-ns#"
   xmlns:svg="http://www.w3.org/2000/svg"
   xmlns="http://www.w3.org/2000/svg"
   version="1.1"
   id="svg2"
   viewBox="0 0 744.09448819 1052.3622047"
   height="297mm"
   width="210mm">
  <defs
     id="defs4" />
  <metadata
     id="metadata7">
    <rdf:RDF>
      <cc:Work
         rdf:about="">
        <dc:format>image/svg+xml</dc:format>
        <dc:type
           rdf:resource="http://purl.org/dc/dcmitype/StillImage" />
        <dc:title></dc:title>
      </cc:Work>
    </rdf:RDF>
  </metadata>
  <g
     id="layer2">
    <path
       id="path4222"
       d="M 139.41499,0.17275194 C 121.91727,0.03596194 104.45851,1.846392 87.694285,6.635642 c -15.2756,4.36396 -46.04249,10.3757 -63.36133,24.81445 -11.12206,9.27248 -20.5171897,22.42247 -23.36913968,36.61914 -2.48657002,12.37788 1.53685998,26.42115 4.81835998,33.728518 3.1260704,6.96125 11.5744497,17.62555 23.3691397,21.92382 13.35523,4.86697 28.74221,3.72341 42.64258,0.75196 12.20935,-2.60998 25.38787,-9.6689 33.246095,-19.78516 7.06473,-9.094768 11.03722,-19.895898 9.39649,-33.246088 -1.55577,-12.65885 -6.11281,-18.08812 -13.25,-23.61133 -12.656275,-9.79423 -20.561165,-9.70522 -31.560555,-9.63672 -13.7396,0.0856 -27.43574,5.54752 -39.26953,12.5293 -6.94762,4.099 -11.44955,9.99022 -17.58789,16.62304 -0.80143,0.86599 2.48939,6.74893 3.13281,6.26368 1.63044,-1.22965 2.44585,-1.88226 3.61328,-2.89063 10.97038,-9.47575 24.73775,-15.20533 38.54688,-15.17773 10.63259,0.02125 23.40545,3.18654 29.63281,11.80468 5.51283,7.6293 5.52319,19.59273 1.68555,28.1875 -4.26461,9.550998 -14.80128,15.780518 -24.57227,19.513678 -10.21999,3.90469 -22.45199,5.57789 -32.76563,1.92773 -8.09191,-2.86385 -15.02937,-9.75293 -19.0332,-17.345701 C 7.8649353,89.875212 5.3200853,77.443512 8.4325657,66.864152 11.454005,56.594242 20.308885,48.198292 29.391545,42.532122 c 18.31091,-11.42318 41.27152,-13.34586 62.63868,-16.38281 25.677735,-3.64961 51.890225,-3.58964 77.781255,-2.06641 14.60656,0.85934 29.47798,1.92468 43.43945,6.30274 11.38884,3.57133 22.34462,9.03476 32.02734,16.01367 7.2314,5.2121 11.18726,10.36779 18.91016,18.91015 0,0 5.13363,-2.88005 4.76953,-3.57812 -1.86029,-3.56665 -2.9155,-5.72074 -4.94141,-8.17774 C 252.814,39.967302 240.19035,26.739482 224.83491,18.120012 208.3851,8.8862419 189.5381,4.572062 170.81148,2.297752 160.42684,1.0365519 149.91363,0.25482194 139.41499,0.17275194 Z M 199.80952,40.364152 c -10.53799,-0.19314 -21.22045,1.67479 -30.84961,5.35352 -13.58633,5.19053 -30.52831,13.15212 -34.07226,27.25781 -4.34898,17.30989 1.21093,34.573468 18.05859,44.972658 13.84553,8.54612 32.61266,10.48496 48.38086,6.47265 12.68017,-3.22654 18.36236,-8.18872 31.54688,-22.11523 0.84325,-0.89071 -5.00488,-6.619218 -6.39454,-5.380858 -13.47912,12.011648 -23.38414,17.732378 -37.41796,16.593748 -13.97933,-1.13421 -23.18017,-8.98701 -26.57618,-19.419918 -4.33553,-13.31919 2.14581,-27.34924 12.26563,-33.73047 11.60075,-7.31506 29.25809,-11.58155 48.72266,-6.13281 12.20594,3.41681 20.7617,18.10678 22.48632,30.66406 1.79956,13.10292 -3.66563,28.843918 -13.96875,37.136718 -20.75651,16.70656 -69.24444,26.21333 -105.62109,27.93945 -20.17913,0.95753 -49.713925,1.3015 -72.937505,-2.68359 -23.22357,-3.9851 -34.23367,-10.91392 -46.5917997,-16.59571 -1.0468,-0.48128 -3.98593,4.53373 -3.12695,4.96875 21.4638497,10.87006 33.7109497,16.89176 51.7890597,22.48633 14.81134,4.58361 46.098155,10.58556 69.164065,8.85938 34.73779,-2.59966 70.86922,-10.31862 100.50977,-28.61915 14.15796,-8.74133 28.40932,-21.03158 33.73047,-36.79687 4.41739,-13.087668 5.66936,-24.196908 -4.66992,-35.636718 -9.75803,-10.79669 -21.85231,-19.07425 -35.875,-22.9668 -5.95942,-1.65427 -12.22994,-2.51106 -18.55274,-2.62695 z"
       style="opacity:1;fill:#ffff00;fill-opacity:1;fill-rule:evenodd;stroke:none;stroke-width:1px;stroke-linecap:butt;stroke-linejoin:miter;stroke-opacity:1" />
  </g>
</svg>
