<?xml version="1.0" encoding="UTF-8" standalone="no"?>
<svg
   xmlns:dc="http://purl.org/dc/elements/1.1/"
   xmlns:cc="http://creativecommons.org/ns#"
   xmlns:rdf="http://www.w3.org/1999/02/22-rdf-syntax-ns#"
   xmlns:svg="http://www.w3.org/2000/svg"
   xmlns="http://www.w3.org/2000/svg"
   version="1.1"
   id="svg2"
   viewBox="0 0 744.09448819 1052.3622047"
   height="297mm"
   width="210mm">
  <defs
     id="defs4" />
  <metadata
     id="metadata7">
    <rdf:RDF>
      <cc:Work
         rdf:about="">
        <dc:format>image/svg+xml</dc:format>
        <dc:type
           rdf:resource="http://purl.org/dc/dcmitype/StillImage" />
        <dc:title></dc:title>
      </cc:Work>
    </rdf:RDF>
  </metadata>
  <g
     style="opacity:1"
     id="layer2">
    <path
       id="path4190"
       d="m 116.96287,0.14753337 c -2.26663,0.02694 -4.52406,0.187818 -6.74609,0.482422 C 100.56301,1.9098824 91.146615,5.9080974 82.992175,11.231517 c -5.99125,3.911234 -11.26949,9.184549 -15.17774,15.177739 -3.99974,6.13349 -6.72536,13.25716 -7.94922,20.47656 -1.16843,6.89245 0.72266,20.96094 0.72266,20.96094 l -2.65039,0.72265 c 0,0 -9.07906,-0.25124 -13.49219,-1.20508 -6.653001,-1.43796 -19.273436,-6.74609 -19.273436,-6.74609 0,0 -0.877326,-0.58576 -1.445312,-0.60156 -0.458078,-0.01278 -0.64505,-0.01788 -0.902344,0.36133 -0.36352,0.53576 -0.384406,1.22258 -0.542969,1.92773 -1.814164,8.06781 -3.861927,15.52748 -5.78125,23.12695 -0.239231,0.94722 -0.482421,2.89258 -0.482421,2.89258 l 0.482421,2.16797 c 0,0 1.368482,-0.13324 1.925782,-0.24219 19.168313,-3.74743 55.326169,-4.15039 55.326169,-4.15039 l 2.73633,-1.87109 -1.44531,-1.6875 c 0,0 -2.86149,-6.26957 -3.67383,-9.81641 -1.36551,-5.96209 -2.58575,-12.57049 -1.62695,-18.61133 0.67791,-4.27116 2.32386,-8.51419 4.81836,-12.04687 3.08518,-4.36918 7.3699,-8.00461 12.04687,-10.59961 4.3988,-2.44065 9.47788,-3.60544 14.455085,-4.33594 6.27693,-0.92126 12.98346,-1.91652 19.03124,0 4.12044,1.30575 8.01506,4.0037 10.60156,7.4668 3.60155,4.82217 5.75615,11.08685 5.78125,17.10547 0.0257,6.17099 -2.63479,12.27926 -5.78125,17.58789 -2.63618,4.4477 -6.55935,8.0986 -10.60156,11.32226 -0.87224,0.69561 -2.89063,1.6875 -2.89063,1.6875 l 0,3.37305 c 0,0 6.89853,-0.65276 10.35938,-0.72266 5.65999,-0.1144 11.11465,-0.48345 16.97656,0.4961 6.08666,1.01711 11.6901,2.5852 18.43946,5.52539 0.89566,0.39018 2.28993,0.29 2.89062,-0.48047 7.31482,-9.38226 16.86328,-20.96094 16.86328,-20.96094 l -2.64844,-1.68554 c 0,0 -0.77193,0.68575 -1.20507,0.96289 -1.96635,1.25814 -4.05242,2.3846 -6.26368,3.13281 -5.26641,1.78197 -10.84957,3.67283 -16.38281,3.13086 -4.05175,-0.39686 -7.75578,-2.61648 -11.32422,-4.57617 -0.60552,-0.33253 -1.68554,-1.20508 -1.68554,-1.20508 0,0 0.86177,-0.92039 1.20507,-1.44531 3.63663,-5.56047 6.89612,-11.4979 8.91407,-17.82813 2.07321,-6.50357 3.73334,-13.4389 3.13086,-20.23828 -0.52451,-5.91947 -2.18237,-12.1343 -5.78125,-16.863282 -3.35888,-4.4136146 -8.52973,-7.4744996 -13.73243,-9.3964836 -6.30778,-2.330227 -13.1962,-3.45385803 -19.99609,-3.37304703 z M 147.68162,108.01082 c -1.15598,0.044 -2.27215,0.23005 -3.25391,0.79101 -1.14748,0.65565 -1.97429,1.65022 -3.13281,2.16993 -4.97597,2.23223 -10.61854,4.55871 -16.07031,4.70507 -16.7732,0.45027 -31.665235,-0.32606 -48.892575,-0.35547 -16.94515,-0.0289 -34.30121,1.73935 -52.763671,1.20508 -3.711684,-0.10741 -5.892033,-2.31368 -8.996094,-4.35156 -0.854445,-0.56096 -2.167969,-2.16797 -2.167969,-2.16797 l -3.1328122,1.6875 c 0,0 0.473155,2.40247 0.242187,3.17578 -2.279747,7.63288 -3.730359,12.35759 -6.632812,19.84961 -0.418391,1.07998 -2.52343802,4.67969 -2.52343802,4.67969 l 3.37304702,2.4082 c 0,0 2.294408,-1.69068 3.048828,-1.9414 12.3419772,-4.10166 21.9187592,-5.40803 33.8125042,-6.25 17.0503,-1.20659 32.92176,-1.53846 49.86914,-1.20313 12.139795,0.2402 24.184915,2.44541 36.138665,4.57617 1.05479,0.18802 3.13086,0.72266 3.13086,0.72266 0,0 1.31099,-1.42316 1.92773,-2.16797 7.04815,-8.51175 20.23828,-26.25976 20.23828,-26.25976 0,0 -0.25639,-1.19908 -0.72461,-1.20508 -1.14003,-0.0141 -2.33425,-0.11232 -3.49023,-0.0684 z"
       style="opacity:1;fill:#ffff00;fill-opacity:1;fill-rule:evenodd;stroke:none;stroke-width:1px;stroke-linecap:butt;stroke-linejoin:miter;stroke-opacity:1" />
  </g>
</svg>
