<?xml version="1.0" encoding="UTF-8" standalone="no"?>
<svg
   xmlns:dc="http://purl.org/dc/elements/1.1/"
   xmlns:cc="http://creativecommons.org/ns#"
   xmlns:rdf="http://www.w3.org/1999/02/22-rdf-syntax-ns#"
   xmlns:svg="http://www.w3.org/2000/svg"
   xmlns="http://www.w3.org/2000/svg"
   version="1.1"
   id="svg2"
   viewBox="0 0 744.09448819 1052.3622047"
   height="297mm"
   width="210mm">
  <defs
     id="defs4" />
  <metadata
     id="metadata7">
    <rdf:RDF>
      <cc:Work
         rdf:about="">
        <dc:format>image/svg+xml</dc:format>
        <dc:type
           rdf:resource="http://purl.org/dc/dcmitype/StillImage" />
        <dc:title></dc:title>
      </cc:Work>
    </rdf:RDF>
  </metadata>
  <g
     id="layer2">
    <path
       id="path4244"
       d="m 23.769976,0.15182567 c 0,0 -8.47235,2.05223003 -15.3710901,7.95898953 -6.8987404,5.9067598 -8.49523043,12.8956298 -7.7109404,19.9960898 0.76294,6.90714 6.4459104,12.64752 11.5644505,17.34766 9.3054,8.54475 28.42774,14.21289 28.42774,14.21289 0,0 -23.65013,8.20326 -31.3183601,17.34765 -3.7040104,4.41705 -7.4633604,9.55842 -8.3554704,16.431644 -1.11351003,8.579011 -0.52519003,15.796701 2.09179,21.031251 7.7860205,15.57378 24.8962805,25.5208 41.4375005,30.95704 21.51439,7.07065 45.60277,3.97327 67.939454,0.24023 13.50182,-2.2565 29.4118,-7.53882 38.54687,-13.73242 6.98072,-4.73294 10.05341,-21.1013 6.50391,-32.402347 -2.00901,-6.396408 -7.42836,-14.889978 -14.0332,-21.421878 -6.60484,-6.5319 -14.63477,-10.5 -14.63477,-10.5 0,0 11.8328,-7.35889 15.53906,-11.92578 4.51178,-5.55945 7.91343,-10.81174 7.34766,-17.94922 -0.66727,-8.41797 -7.17695,-15.83559 -13.49219,-21.44141 C 130.54224,9.4581752 110.30708,3.0522157 110.30708,3.0522157 l -2.16797,5.0585995 c 0,0 8.55815,4.8120198 12.04492,8.1913998 5.46453,5.29625 7.73333,9.43336 5.54102,15.90039 -3.52758,10.40591 -15.63395,16.6513 -26.019527,20.23828 -18.673107,6.44934 -40.529947,6.50549 -59.265627,0.24024 -12.71906,-4.25328 -28.9988,-11.27026 -32.0410101,-24.33203 -1.0998,-4.722 1.8622001,-11.60924 6.5039001,-13.00977 4.48839,-1.35427 8.22514,-0.25493 13.44922,5.55469 0.52328,0.58193 5.17188,-2.9375 5.17188,-2.9375 -4.56534,-9.0352698 -9.75391,-17.80468933 -9.75391,-17.80468933 z m 27.0293,77.58593933 c 21.24726,-9.13656 48.062335,-8.46853 69.384754,0.24023 11.23262,4.58776 23.99146,15.577704 23.60938,27.705085 -0.28687,9.10537 -11.17114,20.9746 -22.71636,26.29037 -22.292399,10.26408 -62.839444,12.85697 -80.637154,0.93424 -8.66362,-5.80378 -17.6377,-16.12348 -16.62304,-26.50195 1.27688,-13.060675 14.92683,-23.483935 26.98242,-28.667975 z"
       style="opacity:1;fill:#ffff00;fill-opacity:1;fill-rule:evenodd;stroke:none;stroke-width:1px;stroke-linecap:butt;stroke-linejoin:miter;stroke-opacity:1" />
  </g>
</svg>
