<?xml version="1.0" encoding="UTF-8" standalone="no"?>
<svg
   xmlns:dc="http://purl.org/dc/elements/1.1/"
   xmlns:cc="http://creativecommons.org/ns#"
   xmlns:rdf="http://www.w3.org/1999/02/22-rdf-syntax-ns#"
   xmlns:svg="http://www.w3.org/2000/svg"
   xmlns="http://www.w3.org/2000/svg"
   xmlns:sodipodi="http://sodipodi.sourceforge.net/DTD/sodipodi-0.dtd"
   xmlns:inkscape="http://www.inkscape.org/namespaces/inkscape"
   version="1.1"
   id="svg2"
   viewBox="0 0 744.09448819 1052.3622047"
   height="297mm"
   width="210mm"
   inkscape:version="0.91 r13725"
   sodipodi:docname="virgo.svg">
  <sodipodi:namedview
     pagecolor="#ffffff"
     bordercolor="#666666"
     borderopacity="1"
     objecttolerance="10"
     gridtolerance="10"
     guidetolerance="10"
     inkscape:pageopacity="0"
     inkscape:pageshadow="2"
     inkscape:window-width="1535"
     inkscape:window-height="876"
     id="namedview4141"
     showgrid="false"
     inkscape:zoom="3.9724111"
     inkscape:cx="105.27213"
     inkscape:cy="972.0727"
     inkscape:window-x="65"
     inkscape:window-y="24"
     inkscape:window-maximized="1"
     inkscape:current-layer="svg2" />
  <defs
     id="defs4" />
  <metadata
     id="metadata7">
    <rdf:RDF>
      <cc:Work
         rdf:about="">
        <dc:format>image/svg+xml</dc:format>
        <dc:type
           rdf:resource="http://purl.org/dc/dcmitype/StillImage" />
        <dc:title />
      </cc:Work>
    </rdf:RDF>
  </metadata>
  <g
     id="layer2"
     transform="translate(-93.645897,-100.94625)">
    <path
       id="path4302"
       d="m 232.00391,101.2168 c 0,0 -8.84217,11.05632 -13.97266,15.90039 -4.07655,3.84897 -13.25,10.35937 -13.25,10.35937 0,0 -12.14045,-4.76498 -18.07031,-7.46875 -6.37211,-2.90542 -18.79102,-9.39648 -18.79102,-9.39648 0,0 -8.13718,9.84173 -12.76758,14.21484 -4.11223,3.88374 -13.25195,10.59961 -13.25195,10.59961 0,0 -9.99475,-4.03923 -14.00391,-5.74023 -4.50411,-1.911 -11.5332,-5.09961 -11.5332,-5.09961 0,0 -6.71406,9.61628 -10.42969,14.21289 -3.75656,4.64724 -11.974606,13.49219 -11.974606,13.49219 l 5.058594,5.54101 c 0,0 5.132562,-4.34546 7.708982,-6.50586 2.40303,-2.01501 7.22852,-6.02148 7.22852,-6.02148 0,0 4.2909,3.11598 6.5039,4.57617 2.67867,1.76745 8.19141,5.06055 8.19141,5.06055 0,0 -0.43722,21.19924 -0.48242,31.80078 -0.0517,12.12639 1.4673,24.31445 0.24219,36.3789 -0.27369,2.69521 -0.24627,5.65534 -1.6875,7.94922 -1.18783,1.89056 -5.29883,4.09571 -5.29883,4.09571 l -0.72461,6.98632 c 0,0 12.4677,-2.73483 18.79297,-2.64843 5.78206,0.079 17.10547,2.89062 17.10547,2.89062 l -0.24219,-6.74609 c 0,0 -1.8915,-1.14214 -2.65039,-1.92774 -2.49147,-2.57915 -5.90629,-5.3299 -6.02149,-8.91406 -0.44855,-13.95603 -0.20571,-26.34117 0,-39.50976 0.20079,-12.8537 1.20313,-38.54688 1.20313,-38.54688 l 18.07031,-17.82812 21.44141,13.73242 c 0,0 -0.16424,21.36026 -0.24024,32.04101 -0.0851,11.96559 -0.24218,35.89844 -0.24218,35.89844 0,0 -0.84099,8.30587 -3.37305,11.32227 -0.57726,0.68768 -2.4082,1.20507 -2.4082,1.20507 l 0.24023,6.7461 c 0,0 11.14803,-2.9191 16.79492,-3.20313 5.64234,-0.2838 16.69336,1.51563 16.69336,1.51563 l -0.48242,-6.98633 c 0,0 -1.60147,-1.14402 -2.16797,-1.92774 -2.25473,-3.11925 -4.52522,-6.75113 -4.57812,-10.5996 -0.16916,-12.29838 0.2953,-22.64795 0.48242,-33.97071 0.21103,-12.76921 0.72265,-38.30469 0.72265,-38.30469 l 11.56446,-8.91406 9.87695,-7.95117 11.56445,9.63672 12.28711,7.22851 c 0,0 -2.30513,28.57417 -3.13281,42.88282 -0.76125,13.16021 -0.56078,25.40777 -1.68555,39.51172 -0.48494,6.08079 -1.75827,12.61388 -6.50586,17.10351 -0.50193,0.47466 -1.68554,1.20508 -1.68554,1.20508 l -0.48243,4.57813 c 0,0 12.15416,-2.36395 18.31055,-2.89063 5.68155,-0.48606 17.10547,-0.24219 17.10547,-0.24219 l -0.24219,-4.0957 c 0,0 -1.96229,-0.517 -2.64843,-1.20313 -2.05841,-2.05841 -3.4287,-5.04612 -3.61524,-7.95117 -0.51724,-8.0553 1.20508,-24.57422 1.20508,-24.57422 0,0 2.29728,-0.68742 3.37305,-1.20507 8.25364,-3.97158 16.58179,-8.30464 23.36914,-14.45508 5.39167,-4.88573 9.99052,-9.98904 13.25,-16.49414 3.02919,-6.04549 5.44451,-13.60398 5.54101,-20.36524 0.0887,-6.21259 -1.56534,-12.63337 -4.57617,-18.06836 -2.53218,-4.57094 -6.01928,-6.79096 -10.8418,-11.32422 -2.01763,-1.89661 -3.28848,-5.47338 -4.60742,-7.9082 -1.24885,-2.30544 -3.10156,-6.30664 -3.10156,-6.30664 0,0 -9.29684,8.09898 -14.21484,11.80664 -4.89117,3.68744 -15.17774,10.35938 -15.17774,10.35938 0,0 -11.89742,-7.08225 -17.3457,-11.32422 -5.51566,-4.29443 -15.41992,-14.21289 -15.41992,-14.21289 z m 51.07617,27.46484 c 0,0 1.48653,1.80012 2.28711,2.64844 10.12253,10.72616 12.8143,19.33518 11.80664,29.875 -0.91385,9.55863 -7.04857,16.95713 -15.41992,24.33203 -2.25649,1.9879 -7.46875,5.06055 -7.46875,5.06055 l -1.44532,3.37109 -1.5664,-3.49219 c 0,0 1.13088,-20.15723 1.6875,-30.23633 0.52771,-9.55568 1.5664,-28.66796 1.5664,-28.66796 z"
       style="opacity:1;fill:#ffff00;fill-opacity:1;fill-rule:evenodd;stroke:none;stroke-width:1px;stroke-linecap:butt;stroke-linejoin:miter;stroke-opacity:1"
       inkscape:connector-curvature="0" />
  </g>
</svg>
