<?xml version="1.0" encoding="UTF-8" standalone="no"?>
<svg
   xmlns:dc="http://purl.org/dc/elements/1.1/"
   xmlns:cc="http://creativecommons.org/ns#"
   xmlns:rdf="http://www.w3.org/1999/02/22-rdf-syntax-ns#"
   xmlns:svg="http://www.w3.org/2000/svg"
   xmlns="http://www.w3.org/2000/svg"
   version="1.1"
   id="svg2"
   viewBox="0 0 744.09448819 1052.3622047"
   height="297mm"
   width="210mm">
  <defs
     id="defs4" />
  <metadata
     id="metadata7">
    <rdf:RDF>
      <cc:Work
         rdf:about="">
        <dc:format>image/svg+xml</dc:format>
        <dc:type
           rdf:resource="http://purl.org/dc/dcmitype/StillImage" />
        <dc:title></dc:title>
      </cc:Work>
    </rdf:RDF>
  </metadata>
  <g
     id="layer2">
    <path
       id="path4183"
       d="m 5.1797474,3.0210009 c 0.290297,-0.619101 0.88264,-1.300204 1.565971,-1.325052 C 48.11853,0.19150987 78.93631,-0.19181513 123.71165,1.5754899 c 0.76652,0.03025 1.28263,0.962399 1.31044,1.729019 0.058,1.599431 -0.0325,2.446526 -0.35408,3.917951 -0.10741,0.491516 -0.69494,1.006109 -1.19728,0.978289 -4.67322,-0.258808 -10.0746,-0.722906 -13.85156,-0.962421 -0.52248,-0.03313 -0.73969,0.584426 -0.45991,1.026931 1.00363,1.587386 1.73985,2.5917721 1.90417,4.5129411 0.17665,2.065308 -0.59506,4.586978 -2.28873,5.782045 -1.87121,1.320338 -4.62353,1.372805 -6.74571,0.511951 -2.57894,-1.04614 -4.06377,-4.171743 -6.17354,-6.143422 C 91.70863,9.0533799 85.37645,6.8048669 79.92106,7.4640059 79.01204,7.5738369 78.72505,8.7171109 78.44757,9.5896839 70.94895,33.170008 61.47545,83.459347 75.95583,130.9781 c 0.26172,0.85886 0.81856,1.43668 2.21462,1.65366 2.52564,0.39254 5.02687,0.51235 7.42506,-0.37172 4.88728,-1.80165 8.26859,-6.82425 12.57705,-9.28007 1.97396,-1.12515 5.01855,-1.1505 6.93466,0.0706 2.03735,1.29832 3.95967,4.97767 2.59489,6.88477 -1.22358,1.70978 -0.67136,1.88824 0.80188,2.03393 2.94066,0.29081 5.96394,-1.17815 8.73801,-0.16002 0.86779,0.31849 1.29383,1.08191 1.44196,1.99436 0.27603,1.70016 0.65091,2.90695 0.13079,4.81984 -0.17941,0.65982 -0.54905,1.39574 -1.23204,1.36284 -37.03822,-1.78427 -62.68341,-2.01643 -115.8414746,1.36284 -1.15614996,0.0735 -1.54749696,-0.13488 -1.49060596,-1.53319 0.0639,-1.57054 0.114132,-2.94187 0.298121,-4.9403 0.06523,-0.70852 1.16241496,-1.02796 1.87390596,-1.02213 3.615353,0.0296 5.556927,-0.052 8.6485476,0.28048 1.490965,0.16036 0.69223,-1.22272 0.720983,-1.98403 0.143457,-3.79841 0.800161,-5.58468 2.896036,-6.98456 2.03049,-1.3562 6.457662,-1.16464 8.529863,1.08413 3.771397,4.09276 6.077014,6.15144 10.740934,6.68164 3.81262,0.43342 5.1489,1.18482 7.64531,0.24092 1.2042,-0.45531 2.53422,-1.31981 2.89604,-2.55533 C 55.59249,92.740237 58.37828,59.874667 48.07782,10.005341 47.8962,9.1260529 47.24139,8.7651809 46.34505,8.7130639 39.00887,8.2865019 32.60863,11.595219 26.783436,16.30848 c -2.115723,1.711866 -4.853555,3.889613 -7.495625,3.236747 -2.195409,-0.542494 -4.103483,-3.204957 -3.957729,-5.461697 0.110644,-1.713123 -0.0038,-2.804843 0.831107,-4.8800681 0.271416,-0.674654 -0.04944,-1.54895 -1.663988,-1.402403 -2.937304,0.266609 -4.8094056,0.162762 -8.1563776,0.330376 -0.602877,0.03019 -1.127354,-0.762732 -1.192485,-1.362841 -0.136361,-1.256415 0.06165,-2.537878 0.03141,-3.747553 z"
       style="opacity:1;fill:#ffff00;fill-opacity:1;fill-rule:evenodd;stroke:none;stroke-width:1px;stroke-linecap:butt;stroke-linejoin:miter;stroke-opacity:1" />
  </g>
</svg>
