<?xml version="1.0" encoding="UTF-8" standalone="no"?>
<svg
   xmlns:dc="http://purl.org/dc/elements/1.1/"
   xmlns:cc="http://creativecommons.org/ns#"
   xmlns:rdf="http://www.w3.org/1999/02/22-rdf-syntax-ns#"
   xmlns:svg="http://www.w3.org/2000/svg"
   xmlns="http://www.w3.org/2000/svg"
   version="1.1"
   id="svg12625"
   viewBox="0 0 744.09448819 1052.3622047"
   height="297mm"
   width="210mm">
  <defs
     id="defs12627" />
  <metadata
     id="metadata12630">
    <rdf:RDF>
      <cc:Work
         rdf:about="">
        <dc:format>image/svg+xml</dc:format>
        <dc:type
           rdf:resource="http://purl.org/dc/dcmitype/StillImage" />
        <dc:title></dc:title>
      </cc:Work>
    </rdf:RDF>
  </metadata>
  <g
     id="layer12">
    <path
       id="path12744"
       d="m 58.537868,0.17752591 c -0.48499,0.0511 -0.92807,0.71242995 -1.7168,1.62695999 -8.2072,9.5161601 -17.06179,18.8704101 -25.55859,28.1289001 -0.76575,0.8344 -1.13401,1.39618 -1.9375,1.29688 -0.80905,-0.10002 -0.75996,-1.56103 -0.78906,-2.65821 -0.0936,-3.5353 -0.0254,-7.07997 0.2539,-10.60546 0.24823,-3.13313 0.56768,-6.27839 1.26172,-9.3437501 0.54671,-2.41467 1.01836,-4.16994 1.84961,-5.53125 0.8313,-1.36131 0.99764,-1.84707 0.75586,-2.31836004 -0.31411,-0.61231995 -1.92925,-0.38312995 -2.94141,-0.32812995 -9.92174,0.53904995 -17.75973,0.49090995 -27.69531,0.61718999 -0.75755,0.01 -1.27665002,-0.0664 -1.60937002,0.39453 -0.40844,0.56577 -0.24118,1.49407 0.0937,2.11523 C 2.485578,7.2459459 4.750588,12.770256 5.051488,17.712686 c 1.29367,21.24876 1.21426,26.30287 1.51367,54.80078 0.1725,16.41429 0.83465,32.646274 0.0977,49.044914 -0.23918,5.32193 0.42906,9.71112 -1.42578,14.70508 -0.86201,2.32088 -2.46244,5.80503 -4.02539,7.68945 -0.57879002,0.69785 -0.85997002,1.1356 -0.40821002,1.76758 0.28769002,0.40244 0.70884002,0.34331 1.46875002,0.28321 10.66938,-0.8439 21.37255,-1.26302 32.07227,-1.51563 0.92572,-0.0219 1.42435,-0.13971 1.65234,-0.71484 0.12947,-0.32659 -0.54602,-1.31126 -0.95507,-1.75977 -0.45775,-0.5019 -0.63363,-0.70568 -1.10743,-1.41406 -0.33748,-0.50457 -0.60556,-0.78757 -0.72461,-1.38281 -0.17857,-0.89286 0.38606,-1.28965 0.88282,-2.05274 3.61024,-5.54579 7.99066,-11.99079 10.96093,-16.53125 0.92128,-1.40829 1.91971,-2.82941 2.40039,-2.8164 0.71402,0.0194 0.88054,0.2789 1.49414,0.64453 14.68877,8.75265 18.17794,11.64221 31.10743,25.26953 0.66062,0.69627 1.34479,1.03811 2.30273,0.97851 0.83172,-0.0518 1.30913,-0.34667 1.73633,-0.97851 1.0414,-1.54028 8.11817,-13.62587 18.640622,-21.40235 0.72913,-0.53885 1.4253,-1.37106 1.40039,-1.83007 -0.0189,-0.3472 -1.08306,-0.90055 -2.12695,-1.42774 -14.999912,-7.5754 -26.939972,-14.3245 -28.736332,-15.33984 -2.43102,-1.37407 -7.44782,-3.933828 -7.86328,-5.054684 -0.36659,-0.98901 0.24514,-2.25682 0.75586,-3.17969 2.66439,-4.81458 4.97087,-9.60854 7.44922,-14.52148 3.32606,-6.59337 6.50907,-13.42726 9.72266,-20.07617 4.70215,-9.72875 9.54926,-19.40357 14.90039,-28.79102 0.393323,-0.68993 0.641493,-1.22993 0.458983,-1.70703 -0.247413,-0.64677 -2.117873,-1.54248 -3.488283,-2.33203 -5.76638,-3.32226 -13.52883,-8.67683 -18.82617,-12.70508 -6.28007,-4.77553 -9.79386,-8.6657001 -15.77344,-13.8125001 -0.76826,-0.66126004 -1.35795,-1.44804999 -2.07031,-1.37304999 z M 45.664538,26.605266 c 0.80672,-0.38653 1.15006,-0.0752 2.00809,0.17773 4.70264,1.38631 8.16662,5.02486 12.22608,7.77393 4.44933,3.01307 8.10131,5.78406 10.73224,7.71744 1.28076,0.94119 2.55424,1.77875 3.2182,2.47732 0.66397,0.69857 0.31686,1.52727 -0.0929,2.39835 -5.34215,11.3575 -9.8631,20.91811 -15.18912,31.41812 -4.29205,8.46159 -9.2009,16.59677 -13.92969,24.822254 -3.68375,6.40769 -7.84184,13.43587 -11.33929,19.46457 -0.55518,0.957 -0.91948,1.16447 -1.20423,1.07199 -0.46748,-0.15183 -1.21597,-1.84587 -1.28021,-3.81255 -0.14077,-4.30991 -0.45058,-13.22669 -0.77393,-21.321934 -0.38743,-9.6993 -0.32706,-19.44833 -0.58008,-29.15207 -0.21726,-8.33242 -0.0856,-13.27794 -0.40318,-21.60714 -0.10962,-2.87513 0.10279,-4.85062 0.58092,-5.3577 4.82773,-5.12 5.26815,-5.57369 9.46456,-9.99945 0.49982,-0.52713 5.90739,-5.75697 6.5625,-6.07086 z"
       style="opacity:1;fill:#ffff00;fill-opacity:1;fill-rule:evenodd;stroke:none;stroke-width:1px;stroke-linecap:butt;stroke-linejoin:miter;stroke-opacity:1" />
  </g>
</svg>
