<?xml version="1.0" encoding="UTF-8" standalone="no"?>
<svg
   xmlns:dc="http://purl.org/dc/elements/1.1/"
   xmlns:cc="http://creativecommons.org/ns#"
   xmlns:rdf="http://www.w3.org/1999/02/22-rdf-syntax-ns#"
   xmlns:svg="http://www.w3.org/2000/svg"
   xmlns="http://www.w3.org/2000/svg"
   version="1.1"
   id="svg2"
   viewBox="0 0 744.09448819 1052.3622047"
   height="297mm"
   width="210mm">
  <defs
     id="defs4" />
  <metadata
     id="metadata7">
    <rdf:RDF>
      <cc:Work
         rdf:about="">
        <dc:format>image/svg+xml</dc:format>
        <dc:type
           rdf:resource="http://purl.org/dc/dcmitype/StillImage" />
        <dc:title></dc:title>
      </cc:Work>
    </rdf:RDF>
  </metadata>
  <g
     id="layer3">
    <path
       id="path5051"
       d="m 116.03279,0.29947676 c -0.7497,0.01786 -1.49633,0.05457 -2.21485,0.107422 -3.21769,0.236693 -6.38079,1.08063504 -9.5332,1.76757804 -3.50212,0.763147 -6.818366,1.256499 -10.542968,1.957032 -7.01197,1.318829 -14.04008,3.395222 -20.26562,6.8808622 -9.76226,5.46584 -19.16679,12.45275 -25.83399,21.4375 -6.04304,8.14365 -11.16108,17.988989 -12.67773,28.185539 -0.10156,0.68282 -0.5525,1.59207 -1.19531,1.84375 -0.43289,0.16916 -1.66639,0.15045 -2.10352,-0.008 -0.67162,-0.24316 -1.18315,-1.24961 -1.24805,-1.96094 -0.73642,-8.07532 -1.19683,-17.092779 -1.64257,-25.798819 -0.39927,-7.79853 -0.23818,-12.22951 1.25,-23.39258 0.20036,-1.5029101 1.72976,-5.3627002 3.79492,-7.2773462 0.94214,-0.873478 0.097,-2.181712 -1.29492,-1.652344 -1.66343,0.632625 -3.04595,1.110341 -4.64258,1.25 -8.31405,0.72724 -13.45546,0.996674 -24.8203104,1.607422 -0.69316,0.03725 -1.07446,0.29998 -1.07422,0.994138 0,0 0.19879,0.48525 0.97851,1.73633 0.77971,1.2510701 1.3549504,2.0302602 2.0078204,3.5410202 1.33579,3.09108 2.37066,5.65103 2.58984,8.83789 1.26158,18.34331 1.87449,34.167379 1.76758,51.265619 -0.12329,19.71934 -1.17685,38.41171 -2.77735,59.09375 -0.21066,2.72222 -3.6904404,6.86592 -6.15624736,9.18555 -0.49432304,0.46502 -0.17300804,1.11917 0.503907,1.16797 1.44029996,0.10396 3.06371036,0.10774 4.38867036,-0.14844 2.84735,-0.55052 4.93228,-0.90619 7.33984,-1.23242 6.84223,-0.92711 15.2975,-0.70893 21.55469,-0.95117 0.71375,-0.0276 0.81809,-0.62371 0.40039,-1.20313 -1.54972,-2.14973 -5.32469,-8.01937 -5.80859,-12.62695 -1.3796,-13.13614 -2.21791,-28.60605 -2.31836,-41.56641 -0.008,-1.0714 0.84459,-1.42383 1.91602,-1.42383 0.47619,0 1.29102,0.86173 1.41211,1.32227 2.78657,10.59859 8.21404,19.9857 14.90039,28.2832 7.79756,9.67647 17.40543,17.29049 28.53711,23.99219 0.86842,0.52286 2.4672,0.49202 3.31445,-0.0644 8.75217,-5.7484 17.973282,-14.62917 19.917972,-16.60352 8.419106,-8.54751 14.961066,-19.505827 18.183586,-31.0625 3.16578,-11.3532 3.5774,-23.97694 0.50391,-35.35547 -2.51099,-9.296099 -9.77137,-16.419739 -14.67578,-24.792969 -1.408486,-2.40471 -2.232846,-4.49172 -3.759766,-7.53125 -0.45503,-0.90579 -1.68805,-0.9207 -3.029302,0.25196 -15.19422,13.28426 -29.30556,26.998149 -41.16406,38.890619 -1.06009,1.06313 -1.69237,0.8459 -1.51562,-1.26172 0.52898,-6.30782 1.27419,-10.55528 3.41015,-15.531249 3.31597,-7.72494 8.05965,-15.18271 14.39453,-20.70898 7.40446,-6.45933 16.67235,-11.12075 26.136722,-13.7617202 4.81508,-1.34362 17.661846,-2.01391 26.517576,-1.76953 0.65721,0.0181 1.60751,-0.642363 1.95703,-1.19922 0.36903,-0.58794 0.65906,-1.772729 0.56836,-2.460938 -0.11326,-0.859246 -0.91515,-1.73802904 -1.76758,-1.89453104 -1.65344,-0.303565 -3.9345,-0.412943 -6.18359,-0.359375 z M 78.653882,40.432291 c 0.99156,-0.89893 1.70823,-1.08159 2.52539,0 10.65153,14.098389 14.220692,22.771789 15.187962,35.571509 1.13872,15.06838 1.32349,27.68967 -6.855932,42.84255 -0.9222,1.70844 -1.2655,1.82731 -2.90429,0.50391 -9.85972,-7.96216 -20.20906,-16.71536 -26.80748,-26.20062 -5.57079,-8.00802 -6.66276,-11.29117 -9.5256,-24.52689 -0.23496,-1.08628 0.10822,-1.99395 1.10456,-2.93656 11.70435,-11.07318 15.89782,-14.93919 27.27539,-25.253899 z"
       style="opacity:1;fill:#ffff00;fill-opacity:1;fill-rule:evenodd;stroke:none;stroke-width:1px;stroke-linecap:butt;stroke-linejoin:miter;stroke-opacity:1" />
  </g>
</svg>
