<?xml version="1.0" encoding="UTF-8" standalone="no"?>
<svg
   xmlns:dc="http://purl.org/dc/elements/1.1/"
   xmlns:cc="http://creativecommons.org/ns#"
   xmlns:rdf="http://www.w3.org/1999/02/22-rdf-syntax-ns#"
   xmlns:svg="http://www.w3.org/2000/svg"
   xmlns="http://www.w3.org/2000/svg"
   version="1.1"
   id="svg2"
   viewBox="0 0 744.09448819 1052.3622047"
   height="297mm"
   width="210mm">
  <defs
     id="defs4" />
  <metadata
     id="metadata7">
    <rdf:RDF>
      <cc:Work
         rdf:about="">
        <dc:format>image/svg+xml</dc:format>
        <dc:type
           rdf:resource="http://purl.org/dc/dcmitype/StillImage" />
        <dc:title></dc:title>
      </cc:Work>
    </rdf:RDF>
  </metadata>
  <g
     id="layer2">
    <path
       id="path4230"
       d="m 5.0434725,0.26082779 c -1.263849,-0.01197 -2.493982,0.02881 -3.671875,0.154297 -1.261214,0.134368 -1.271736,1.00150201 -0.882812,1.38867201 3.940045,3.922274 5.207592,10.3886642 5.554687,16.0351562 1.100148,17.896928 1.148387,34.470428 1.263672,51.644528 0.129855,19.34465 -0.214416,37.380969 -0.580078,57.910169 -0.04267,2.39543 -3.093413,9.1314 -5.74999997,11.32812 -1.06935403,0.88424 -0.29665,1.73267 0.71484397,1.58008 5.174124,-0.78057 8.5197415,-1.00652 12.9609365,-1.18554 5.23134,-0.21087 9.28293,-0.37705 14.27734,-0.37305 0.8409,6.8e-4 1.26217,-0.40313 0.82227,-1.16406 -2.34232,-4.0517 -5.11032,-7.57335 -5.42969,-14.14063 -0.34129,-7.01804 -0.7802,-13.57744 -0.7832,-20.25195 -0.003,-6.674529 6.8e-4,-13.169939 0.18164,-20.318369 0.0259,-1.02416 0.38942,-1.65748 1.60938,-1.86133 0.78987,-0.13198 1.62318,-0.10562 2.27343,0.125 0.63964,0.22685 1.32982,0.96991 1.41993,1.64258 0.55114,4.11483 0.23424,8.63101 1.13671,12.7207 3.25278,14.740439 4.84883,17.936689 11.61719,26.390639 4.04903,5.05741 6.30195,6.67462 12.7461,16.10937 1.28132,1.87597 2.69285,1.44104 3.43164,0.7207 10.33869,-10.08041 20.84627,-19.27515 36.98242,-34.0039 0.74709,-0.68192 1.05462,-0.98497 1.64062,0.75781 4.239333,12.60784 7.969923,25.86769 17.425773,35.86133 0.98398,1.03994 3.47267,1.30032 4.29297,0.12695 6.03005,-8.6255 9.94521,-13.69509 14.77344,-19.57226 1.42077,-1.72943 0.8458,-2.93047 -0.75781,-3.50782 -4.18313,-1.50606 -9.14977,-8.74127 -11.24414,-15.01757 C 110.21271,70.827291 104.95011,40.336361 93.926287,5.5909058 c -0.15949,-0.502685 -0.88722,-0.919182 -1.38867,-0.755859 -6.04643,1.969324 -10.98158,5.2083162 -15.91016,8.7109372 -8.13743,5.783067 -15.79247,12.441747 -22.22266,20.078127 -8.01771,9.52168 -14.57651,19.06662 -19.95117,31.5664 -0.21161,0.49215 -0.6038,1.08202 -1.13672,1.13672 -2.37492,0.24368 -3.72097,0.12603 -6.06054,-0.25195 -0.53212,-0.086 -0.95897,-0.72706 -1.00977,-1.26367 -1.39964,-14.78454 -1.32522,-30.12927 -1.26172,-45.203127 0.01,-2.316443 -0.44382,-4.735812 0.25196,-6.945312 1.23435,-3.9197572 6.8346,-6.2464972 6.6914,-10.3535162 -0.0147,-0.420643 -0.33696,-1.005819 -0.75781,-1.011719 -4.30918,-0.06 -9.59674,-0.237126 -14.39453,-0.37890601 -3.8516,-0.113819 -7.9408755,-0.622308 -11.7324245,-0.658203 z M 77.173497,20.650895 c 1.46969,-1.243582 2.02497,-1.727041 2.32115,-0.222098 7.22808,36.726644 8.83322,45.075614 15.71484,75.714844 0.27045,1.20415 0.33481,1.56748 -0.71484,2.5 -9.51098,8.449629 -12.4033,11.073589 -20.53516,18.212899 -1.2901,1.13264 -1.6954,1.29517 -2.85742,0.35742 -9.45917,-7.63348 -14.50301,-13.51614 -18.75,-22.320319 -3.65774,-7.58263 -3.11928,-16.84047 -1.96484,-25.17969 1.48745,-10.74474 5.83266,-21.13758 11.25,-30.53515 4.0957,-7.1049 8.59959,-12.658397 15.53627,-18.527906 z"
       style="opacity:1;fill:#ffff00;fill-opacity:1;fill-rule:evenodd;stroke:none;stroke-width:1px;stroke-linecap:butt;stroke-linejoin:miter;stroke-opacity:1" />
  </g>
</svg>
