<?xml version="1.0" encoding="UTF-8" standalone="no"?>
<svg
   xmlns:dc="http://purl.org/dc/elements/1.1/"
   xmlns:cc="http://creativecommons.org/ns#"
   xmlns:rdf="http://www.w3.org/1999/02/22-rdf-syntax-ns#"
   xmlns:svg="http://www.w3.org/2000/svg"
   xmlns="http://www.w3.org/2000/svg"
   version="1.1"
   id="svg2"
   viewBox="0 0 744.09448819 1052.3622047"
   height="297mm"
   width="210mm">
  <defs
     id="defs4" />
  <metadata
     id="metadata7">
    <rdf:RDF>
      <cc:Work
         rdf:about="">
        <dc:format>image/svg+xml</dc:format>
        <dc:type
           rdf:resource="http://purl.org/dc/dcmitype/StillImage" />
        <dc:title></dc:title>
      </cc:Work>
    </rdf:RDF>
  </metadata>
  <g
     id="layer2">
    <path
       id="path4199"
       d="m 108.01345,0.23325004 c -0.93469,-0.06319 -1.88723,0.273986 -2.86523,1.20312496 -13.353217,12.686032 -21.331277,20.002832 -32.224607,37.388672 -0.25606,0.40867 -0.74346,0.455867 -1.44727,0.06055 C 52.596563,28.280993 37.83992,17.475981 27.636501,7.0574694 26.060785,5.448537 25.81028,5.095956 23.718532,6.7176254 14.878105,13.571342 8.9260423,19.687152 2.3337659,26.537937 c -1.721403,1.788907 -0.813854,2.045867 0.240235,2.529297 11.9125651,5.463386 16.4818341,6.03443 36.6210931,18.91211 1.44453,0.923678 1.683795,1.867321 0.841797,3.373051 -9.504597,16.99693 -16.718949,31.2013 -24.935547,46.980462 -3.856444,7.405923 -8.2942951,13.063493 -14.2128901,19.875003 -1.184657,1.36338 -0.98494,1.67412 0.240234,2.40821 15.7143491,9.41556 17.5805271,10.37903 34.3320311,32.16406 0.489522,0.63661 1.513753,0.90589 2.408203,0 5.366171,-5.43481 9.750311,-10.17783 15.177731,-15.78125 0.72283,-0.74627 1.10406,-0.7887 1.92774,-0.24023 2.03168,1.35285 3.11961,2.1145 5.05859,3.9746 0.76663,0.73546 1.04113,1.30511 0.36133,2.16797 -2.25342,2.86023 -4.07224,5.19615 -6.14258,7.58985 -0.82597,0.95498 -0.40238,1.5734 0.1211,1.5664 2.5107,-0.0352 4.32614,-0.26312 6.5039,-0.39257 1.31705,-0.0783 1.65463,-0.79001 2.16797,-1.41407 10.43568,-12.68666 17.17558,-20.58255 28.73047,-33.74023 0.90398,-1.02938 1.37343,-1.09404 2.38477,-0.16992 12.901537,11.78893 23.383887,21.24275 37.308587,31.51562 2.04407,1.508 4.06638,1.22751 4.93945,-0.16992 6.02112,-9.63736 9.24673,-14.60047 14.14844,-21.49414 1.10217,-1.55008 0.62799,-2.82399 -1.20117,-2.86719 -4.8249,-0.11385 -9.53748,-0.34475 -13.55274,-2.58789 -10.09931,-5.642 -17.94683,-11.88853 -27.75781,-20.835943 -1.03695,-0.94568 -0.84167,-1.34239 -0.0859,-2.29882 6.11125,-7.734562 12.81879,-15.423632 17.54688,-24.191412 4.49527,-8.33604 8.70817,-17.19901 10.05078,-26.574219 1.70407,-11.899224 -0.69255,-18.710803 -5.10938,-25.042969 C 124.03282,12.598018 119.6873,8.1018094 110.76935,1.436375 109.86441,0.76000204 108.94818,0.29644104 108.01349,0.23325004 Z M 96.740013,16.418797 c 0.31607,-0.03719 0.666915,0.184074 1.083985,0.691406 6.638432,8.075203 9.118792,9.040086 13.968752,16.523438 7.41176,11.436137 5.7115,19.475164 5.62109,23.509764 -0.22305,9.95386 -5.22232,18.9627 -9.83789,27.38477 -1.11082,2.02691 -2.17042,3.24405 -4.2168,6.08984 -0.66939,0.93088 -1.6861,1.58979 -2.98047,0 -4.750747,-5.83508 -6.576317,-8.07976 -11.624997,-19.16601 -3.61859,-7.94596 -2.87558,-17.64142 -2.01562,-26.330083 0.68509,-6.921806 3.09983,-13.463939 5.46289,-20.005859 0.97959,-2.711924 2.27763,-5.197231 3.66406,-7.835938 0.27767,-0.528473 0.55894,-0.824133 0.875,-0.861328 z m -36.31054,24.455078 c 2.58854,1.526847 4.85849,2.747295 7.24023,4.003906 1.17719,0.621085 1.17652,1.014062 0.59766,2.554688 -4.68242,12.462286 -4.23655,18.815136 -1.19336,30.152346 3.09764,11.54007 11.1316,19.588272 19.25,30.238285 0.85496,1.12157 1.26284,1.77263 0.51172,2.72656 -5.81565,7.38593 -10.8978,13.89144 -17.7168,21.97461 -0.63956,0.75813 -1.64517,1.20308 -2.89648,0.68164 -12.38827,-5.16236 -31.909565,-18.59054 -41.225701,-27.76802 -0.890934,-0.87767 -0.809312,-1.74601 0.08561,-3.57768 10.276941,-21.034165 20.68275,-38.593065 32.62251,-60.730476 0.70799,-1.312685 1.47249,-0.994422 2.72461,-0.255859 z"
       style="opacity:1;fill:#ffff00;fill-opacity:1;fill-rule:evenodd;stroke:none;stroke-width:1px;stroke-linecap:butt;stroke-linejoin:miter;stroke-opacity:1" />
  </g>
</svg>
