<?xml version="1.0" encoding="UTF-8" standalone="no"?>
<svg
   xmlns:dc="http://purl.org/dc/elements/1.1/"
   xmlns:cc="http://creativecommons.org/ns#"
   xmlns:rdf="http://www.w3.org/1999/02/22-rdf-syntax-ns#"
   xmlns:svg="http://www.w3.org/2000/svg"
   xmlns="http://www.w3.org/2000/svg"
   version="1.1"
   id="svg4946"
   viewBox="0 0 744.09448819 1052.3622047"
   height="297mm"
   width="210mm">
  <defs
     id="defs4948" />
  <metadata
     id="metadata4951">
    <rdf:RDF>
      <cc:Work
         rdf:about="">
        <dc:format>image/svg+xml</dc:format>
        <dc:type
           rdf:resource="http://purl.org/dc/dcmitype/StillImage" />
        <dc:title></dc:title>
      </cc:Work>
    </rdf:RDF>
  </metadata>
  <g
     style="opacity:1"
     id="layer3">
    <path
       id="path5065"
       d="m 19.748209,0.35178106 c 2.566488,-1.14925042 1.7548,2.11826634 15.215428,10.54346794 10.961957,6.861244 23.345857,9.753471 24.496197,11.490484 1.46756,2.216025 -4.27059,1.920011 -19.7574,26.659951 -14.379794,22.971507 -16.292422,28.07769 -16.292422,28.07769 0,0 36.688482,15.462477 36.744302,17.172592 0.0476,1.45824 -12.95211,2.62875 -29.33186,18.430034 -9.534456,9.19774 -11.990026,14.93822 -13.310105,24.07035 -0.35609,2.46339 0.841795,5.13494 2.399113,7.07106 1.557319,1.93613 4.493755,4.138 6.944798,4.54569 2.687244,0.44698 6.907815,-4.36712 6.907815,-4.36712 0,0 -4.006688,-5.60426 0,-7.82868 2.337819,-1.2979 5.949039,1.36093 7.071069,3.78807 1.33716,2.89249 -0.10684,6.79576 -2.02031,9.34392 -2.126,2.83118 -5.803818,4.99428 -9.343907,5.05076 -5.081585,0.0811 -10.562987,-2.77141 -13.637059,-6.81853 -3.734707,-4.91687 -4.361482,-12.06381 -3.535534,-18.18275 0.773013,-5.72678 4.388957,-10.79669 7.702413,-15.53109 3.361637,-4.80324 12.242138,-11.8422 12.128176,-12.73786 C 32.006001,100.16374 22.188329,97.258576 16.970289,95.558656 11.285678,93.706741 0.39760425,91.498997 0.08853225,90.463253 -0.35645675,88.972034 14.682449,73.362807 21.099096,63.886787 31.950828,47.861092 35.279304,37.979963 35.279304,37.979963 c 0,0 -6.29415,-5.951339 -11.743023,-7.828682 C 13.518935,26.699926 5.5376412,29.063496 3.2069602,27.373361 1.1622342,25.890592 8.3979062,17.796688 11.161912,13.104957 13.954176,8.3652593 17.347274,1.4268982 19.748209,0.35178106 Z"
       style="fill:#ffff00;fill-opacity:1;fill-rule:evenodd;stroke:none;stroke-width:1px;stroke-linecap:butt;stroke-linejoin:miter;stroke-opacity:1" />
  </g>
</svg>
