<?xml version="1.0" encoding="UTF-8" standalone="no"?>
<svg
   xmlns:dc="http://purl.org/dc/elements/1.1/"
   xmlns:cc="http://creativecommons.org/ns#"
   xmlns:rdf="http://www.w3.org/1999/02/22-rdf-syntax-ns#"
   xmlns:svg="http://www.w3.org/2000/svg"
   xmlns="http://www.w3.org/2000/svg"
   version="1.1"
   id="svg5653"
   viewBox="0 0 744.09448819 1052.3622047"
   height="297mm"
   width="210mm">
  <defs
     id="defs5655" />
  <metadata
     id="metadata5658">
    <rdf:RDF>
      <cc:Work
         rdf:about="">
        <dc:format>image/svg+xml</dc:format>
        <dc:type
           rdf:resource="http://purl.org/dc/dcmitype/StillImage" />
        <dc:title></dc:title>
      </cc:Work>
    </rdf:RDF>
  </metadata>
  <g
     style="opacity:1"
     id="layer4">
    <path
       id="path5740"
       d="M 51.555059,0.23874374 C 48.987975,0.63542574 36.154157,14.803945 27.170293,21.322727 20.540378,26.13346 13.225647,33.973297 10.375371,41.652806 5.9808355,53.493016 6.4079025,65.872835 9.8714651,78.018045 13.518752,90.807505 31.582367,110.71686 31.463262,111.8657 c -0.09687,0.93439 -7.3377,7.51692 -15.429688,15.12695 -5.161471,4.85406 -15.90258651,15.52024 -15.77929651,15.95118 0.291073,1.0174 3.69188201,4.05782 4.69336001,3.80078 1.431992,-0.36753 28.5376525,-32.13854 29.4707025,-32.05664 0.932491,0.0818 7.607814,5.94745 18.673828,15.5332 11.205154,9.70628 27.733865,21.38056 28.714845,20.93359 0.856,-0.39003 2.86495,-8.2136 5.08789,-15.19531 2.22294,-6.98172 4.48136,-13.29987 4.04687,-14.24414 -0.76216,-1.65641 -11.70737,-1.79817 -22.861324,-7.71094 -16.002864,-8.4832 -18.774347,-11.7233 -18.998047,-13.5332 -0.261001,-2.111685 11.93455,-14.282885 16.978516,-22.074225 4.419226,-6.82631 9.036915,-13.855866 11.111325,-21.718749 1.9989,-7.576678 4.17989,-14.269863 1.38868,-21.591797 C 75.591053,27.295868 68.139065,22.486076 63.535527,16.777806 59.222952,11.430323 53.288746,0.65778474 51.769902,0.24460374 c -0.06097,-0.01659 -0.132034,-0.01866 -0.214843,-0.0059 z M 39.54334,22.965306 c 0.700656,-0.0087 8.370637,5.54331 14.713588,14.445731 3.852189,5.406602 6.672754,12.491438 6.499303,19.267159 -0.177212,6.922616 -1.521019,15.200989 -4.067243,21.640769 -2.546224,6.43978 -9.990088,17.20436 -11.210101,16.9979 -0.962313,-0.16285 -8.51888,-9.1436 -11.528321,-15.09933 -3.00944,-5.95573 -6.317792,-15.583352 -6.349749,-22.599328 -0.02928,-6.42847 0.555103,-14.322475 2.756976,-20.362164 4.698754,-12.888579 8.291026,-14.279661 9.185547,-14.290737 z"
       style="fill:#ffff00;fill-opacity:1;fill-rule:evenodd;stroke:none;stroke-width:1px;stroke-linecap:butt;stroke-linejoin:miter;stroke-opacity:1" />
  </g>
</svg>
