<?xml version="1.0" encoding="UTF-8" standalone="no"?>
<svg
   xmlns:dc="http://purl.org/dc/elements/1.1/"
   xmlns:cc="http://creativecommons.org/ns#"
   xmlns:rdf="http://www.w3.org/1999/02/22-rdf-syntax-ns#"
   xmlns:svg="http://www.w3.org/2000/svg"
   xmlns="http://www.w3.org/2000/svg"
   version="1.1"
   id="svg6330"
   viewBox="0 0 744.09448819 1052.3622047"
   height="297mm"
   width="210mm">
  <defs
     id="defs6332" />
  <metadata
     id="metadata6335">
    <rdf:RDF>
      <cc:Work
         rdf:about="">
        <dc:format>image/svg+xml</dc:format>
        <dc:type
           rdf:resource="http://purl.org/dc/dcmitype/StillImage" />
        <dc:title></dc:title>
      </cc:Work>
    </rdf:RDF>
  </metadata>
  <g
     id="layer5">
    <path
       id="path6433"
       d="m 30.718483,1.6261836 c 1.02743,-0.79354401 15.8694,-1.22644301 23.30748,-1.35197701 16.16577,-0.272833 28.85934,-0.314238 30.30457,0.82074901 1.14008,0.895343 -1.16081,5.743282 -2.33598,6.565992 -1.21102,0.847813 -26.10981,-0.01515 -27.40038,0.694479 -1.14271,0.628326 -24.76993,46.5115094 -24.3068,47.9822494 0.43349,1.37663 14.24868,5.8917 24.74874,18.94036 6.34381,7.8836 9.37045,18.46568 10.35406,28.536814 1.06579,10.91263 -1.11859,15.37353 -3.97747,22.41276 -2.11753,5.21384 -8.18924,11.92306 -9.40705,13.95273 -1.27386,2.12308 -0.0634,7.6588 -1.07328,8.64943 -0.60169,0.59021 -2.62542,0.0596 -4.04061,-0.44194 -1.90696,-0.6758 -6.81567,-4.38496 -12.76287,-8.80905 -5.9472,-4.42408 -13.33618,-8.56156 -12.86976,-9.81564 0.68357,-1.83796 6.44807,-1.14873 10.4172,-5.24016 5.34095,-5.50553 11.30422,-16.62801 11.26858,-26.085404 -0.0354,-9.39565 -5.0107,-19.03042 -11.48414,-26.01143 -4.04538,-4.36258 -11.53541,-10.42678 -18.28195,-13.25748 -6.7465413,-2.8307 -11.9912583,-2.07363 -12.68646028,-2.77514 -0.695202,-0.70152 8.43650898,-16.21 16.18173028,-29.81923 7.74523,-13.609232 13.23236,-24.3209374 14.04439,-24.9481124 z"
       style="opacity:1;fill:#ffff00;fill-opacity:1;fill-rule:evenodd;stroke:none;stroke-width:1px;stroke-linecap:butt;stroke-linejoin:miter;stroke-opacity:1" />
  </g>
</svg>
