<?xml version="1.0" encoding="UTF-8" standalone="no"?>
<svg
   xmlns:dc="http://purl.org/dc/elements/1.1/"
   xmlns:cc="http://creativecommons.org/ns#"
   xmlns:rdf="http://www.w3.org/1999/02/22-rdf-syntax-ns#"
   xmlns:svg="http://www.w3.org/2000/svg"
   xmlns="http://www.w3.org/2000/svg"
   version="1.1"
   id="svg7013"
   viewBox="0 0 744.09448819 1052.3622047"
   height="297mm"
   width="210mm">
  <defs
     id="defs7015" />
  <metadata
     id="metadata7018">
    <rdf:RDF>
      <cc:Work
         rdf:about="">
        <dc:format>image/svg+xml</dc:format>
        <dc:type
           rdf:resource="http://purl.org/dc/dcmitype/StillImage" />
        <dc:title></dc:title>
      </cc:Work>
    </rdf:RDF>
  </metadata>
  <g
     id="layer6">
    <path
       id="path7132"
       d="m 86.137416,0.36715259 c -1.14894,-0.08811 -2.8457,0.441406 -2.8457,0.441406 0,0 -21.78573,4.08976701 -32.06055,7.87499701 -12.66354,4.6652294 -22.02951,11.8585194 -31.33984,21.8203194 -7.731208,8.27219 -15.4025708,19.47775 -17.5878898,29.41406 -4.374794,19.89152 -0.9725101,30.22071 4.357422,44.216805 3.6036848,9.46306 29.6155778,38.49188 32.0507778,41.0371 3.7514,3.92089 6.21382,6.76827 6.7461,6.89258 0.37988,0.0887 11.83201,-10.33894 12.6582,-11.14453 8.52527,-8.31263 10.68619,-9.78317 15.625,-15.625 7.25696,-8.58383 13.77065,-18.44275 16.83008,-29.220705 2.69037,-9.47778 3.06978,-19.77078 0.84765,-29.36914 -2.99774,-12.94854 -7.60229,-18.82001 -12.89843,-27.94336 -2.1547,-3.71178 -7.29055,-11.18922 -8.0625,-11.19922 -1.00458,-0.0125 -2.8959,1.53654 -9.4336,6.31641 -13.85729,10.13142 -35.95312,25.60937 -35.95312,25.60937 0,0 -2.23264,1.82355 -3.08399,1.03906 -0.82119,-0.75669 -0.50026,-3.05975 -0.16406,-4.45898 2.67133,-11.11789 9.88646,-24.20697 20.35156,-31.44727 10.79225,-7.46665 23.41632,-11.482 36.36524,-14.484369 2.89245,-0.6706504 8.06343,-1.7337104 8.54101,-2.5253904 0.53488,-0.88671 0.55373,-6.184666 -0.0605,-6.90625201 -0.17787,-0.208939 -0.49983,-0.308522 -0.88282,-0.337891 z M 52.400996,48.397515 c 8.77433,3.07207 15.49878,16.05593 18.68828,26.70523 3.0929,10.32678 2.26467,21.69849 -0.8835,32.008555 -4.35134,14.25041 -10.51703,25.04004 -11.4915,25.129 -1.7389,0.15875 -18.97184,-15.93958 -26.39013,-26.07622 -3.57027,-4.87855 -8.3765,-13.069035 -10.45521,-20.506005 -2.07872,-7.43697 -1.17738,-14.24669 -0.65612,-15.66924 0.4831,-1.31843 7.96827,-6.82545 15.4886,-11.94827 7.52034,-5.12282 15.07583,-9.86143 15.69958,-9.64305 z"
       style="opacity:1;fill:#ffff00;fill-opacity:1;fill-rule:evenodd;stroke:none;stroke-width:1px;stroke-linecap:butt;stroke-linejoin:miter;stroke-opacity:1" />
  </g>
</svg>
