<?xml version="1.0" encoding="UTF-8" standalone="no"?>
<svg
   xmlns:dc="http://purl.org/dc/elements/1.1/"
   xmlns:cc="http://creativecommons.org/ns#"
   xmlns:rdf="http://www.w3.org/1999/02/22-rdf-syntax-ns#"
   xmlns:svg="http://www.w3.org/2000/svg"
   xmlns="http://www.w3.org/2000/svg"
   version="1.1"
   id="svg2"
   viewBox="0 0 744.09448819 1052.3622047"
   height="297mm"
   width="210mm">
  <defs
     id="defs4" />
  <metadata
     id="metadata7">
    <rdf:RDF>
      <cc:Work
         rdf:about="">
        <dc:format>image/svg+xml</dc:format>
        <dc:type
           rdf:resource="http://purl.org/dc/dcmitype/StillImage" />
        <dc:title></dc:title>
      </cc:Work>
    </rdf:RDF>
  </metadata>
  <g
     id="layer2">
    <path
       id="path4382"
       d="M 30.117024,0.19798262 0.24202434,28.625723 l 4.33789996,5.78125 10.8398397,-9.39453 24.57422,25.77734 24.33398,-22.16406 22.16406,21.68359 29.632826,-22.40625 23.85156,31.56055 35.41406,-29.39258 -2.16797,-3.37305 -16.14257,9.87891 L 133.47055,8.8698626 107.45102,28.385483 82.636564,4.7741626 58.304524,25.252673 30.117024,0.19798262 Z m 76.732436,68.30079038 -26.380866,21.80273 -20.12305,-21.37109 -30.46875,23.05664 5.29883,6.50586 13.73242,-8.91407 15.66016,19.753907 30.5957,-19.273437 17.828126,20.238277 27.22461,-19.755847 16.38282,20.718737 29.80273,-30.156237 -4.73242,-3.95313 -11.67969,12.00195 -19.6543,-16.67968 -22.88867,17.46679 -20.59765,-21.4414 z"
       style="opacity:1;fill:#ffff00;fill-opacity:1;fill-rule:evenodd;stroke:none;stroke-width:1px;stroke-linecap:butt;stroke-linejoin:miter;stroke-opacity:1" />
  </g>
</svg>
