<?xml version="1.0" encoding="UTF-8" standalone="no"?>
<svg
   xmlns:dc="http://purl.org/dc/elements/1.1/"
   xmlns:cc="http://creativecommons.org/ns#"
   xmlns:rdf="http://www.w3.org/1999/02/22-rdf-syntax-ns#"
   xmlns:svg="http://www.w3.org/2000/svg"
   xmlns="http://www.w3.org/2000/svg"
   version="1.1"
   id="svg2"
   viewBox="0 0 744.09448819 1052.3622047"
   height="297mm"
   width="210mm">
  <defs
     id="defs4" />
  <metadata
     id="metadata7">
    <rdf:RDF>
      <cc:Work
         rdf:about="">
        <dc:format>image/svg+xml</dc:format>
        <dc:type
           rdf:resource="http://purl.org/dc/dcmitype/StillImage" />
        <dc:title></dc:title>
      </cc:Work>
    </rdf:RDF>
  </metadata>
  <g
     id="layer2">
    <path
       id="path4254"
       d="m 8.9582519,0.37768555 c -0.13486,-0.0109 -0.26478,0.001 -0.37696,0.041 -0.38605,0.13654 -0.86018,0.69905995 -0.83007,1.10742995 1.12549,15.2691605 2.3279801,23.7419505 -7.25000026,39.6718705 -0.31104,0.51732 -0.19363,1.29155 0.12109,1.80664 0.36622005,0.59937 1.11286006,0.97429 1.80664006,1.08399 1.0582702,0.16731 1.6963702,0.41311 3.1308602,-0.72266 3.67742,-2.91164 6.6195901,-4.91827 10.7949201,-5.97852 8.92232,-2.26566 17.31665,-2.09015 27.53711,-1.56445 9.54517,0.49097 16.78239,1.6012 26.76172,3.63672 1.11833,0.22811 4.55273,0.82226 4.55273,0.82226 0,0 -1.07237,0.91038 -1.7832,1.53321 -15.52575,13.60378 -30.13177,23.36625 -45.6543,35.09375 -1.70428,1.29469 -1.82744,1.64713 -1.44922,2.81054 1.34407,7.49928 1.59339,15.445077 0.42579,22.402344 -0.25124,1.49694 -0.92275,3.8764 -0.23438,4.2793 0.9639,0.56415 1.33772,0.7634 2.83203,1.04296 0.63763,0.1193 1.08374,-0.9274 1.40625,-1.49023 7.03258,-12.273087 10.54672,-16.206337 19.08008,-23.728514 0.95726,-0.84383 2.69057,-1.83708 3.07031,-1.41601 0.58625,0.65007 -0.18983,1.50187 -0.48047,2.30859 -2.87578,7.982137 -7.35092,15.848467 -7.46875,24.332024 -0.12961,9.33156 2.27739,19.22713 7.46875,26.98242 5.60271,8.36982 14.49296,14.82783 23.85157,18.55079 8.54603,3.39971 18.444589,4.44698 27.464838,2.65039 8.20949,-1.6351 16.41012,-5.7251 22.16406,-11.80469 5.90268,-6.23676 9.49374,-14.88848 10.8418,-23.36914 1.48553,-9.34552 1.06814,-18.40375 -3.20313,-28.187497 -3.63801,-8.333187 -9.18014,-16.673947 -16.15625,-22.505857 -8.46068,-7.07299 -18.787589,-10.98704 -29.789058,-13.87305 -1.35658,-0.35587 -2.69812,-0.28218 -3.03125,-1.64453 0,0 0.47323,-0.84908 1.3457,-1.48633 14.691898,-10.73102 27.520478,-17.57383 42.341798,-25.90039 1.41768,-0.79644 3.06059,-0.45706 3.61328,-1.98633 0.45756,-1.26603 1.19873,-4.23965 -0.90429,-3.79492 -7.13069,1.50793 -16.70809,3.11252 -25.29688,3.49414 -17.311218,0.76918 -34.727068,-0.48298 -51.914058,-2.6914 -9.46079,-1.21565 -19.01882,-2.64441 -28.02344,-5.79102 -7.04773,-2.46279 -12.95361,-9.2087005 -15.7578101,-15.11914045 -0.15302,-0.3225 -0.60324,-0.56308 -1.00781,-0.5957 z M 91.688722,75.166746 c 9.717018,0.34617 20.271288,4.04634 26.982418,11.08203 6.76772,7.095017 10.49084,17.920964 9.8789,27.707024 -0.60068,9.60601 -5.63824,19.5889 -13.00976,25.77735 -6.16823,5.17828 -15.09632,7.56867 -23.128908,6.98632 -9.81789,-0.71178 -20.22976,-5.14588 -26.74219,-12.52734 -5.86387,-6.64636 -8.72732,-16.44974 -8.1914,-25.29687 0.58872,-9.718847 5.01579,-20.024627 12.28711,-26.499994 5.74655,-5.11751 14.23379,-7.50248 21.92383,-7.22852 z"
       style="opacity:1;fill:#ffff00;fill-opacity:1;fill-rule:evenodd;stroke:none;stroke-width:1px;stroke-linecap:butt;stroke-linejoin:miter;stroke-opacity:1" />
  </g>
</svg>
