<?xml version="1.0" encoding="UTF-8" standalone="no"?>
<svg
   xmlns:dc="http://purl.org/dc/elements/1.1/"
   xmlns:cc="http://creativecommons.org/ns#"
   xmlns:rdf="http://www.w3.org/1999/02/22-rdf-syntax-ns#"
   xmlns:svg="http://www.w3.org/2000/svg"
   xmlns="http://www.w3.org/2000/svg"
   width="210mm"
   height="297mm"
   viewBox="0 0 744.09448819 1052.3622047"
   id="svg2"
   version="1.1">
  <defs
     id="defs4" />
  <metadata
     id="metadata7">
    <rdf:RDF>
      <cc:Work
         rdf:about="">
        <dc:format>image/svg+xml</dc:format>
        <dc:type
           rdf:resource="http://purl.org/dc/dcmitype/StillImage" />
        <dc:title></dc:title>
      </cc:Work>
    </rdf:RDF>
  </metadata>
  <g
     transform="matrix(0.90388496,-0.42777562,0.42777562,0.90388496,-8.775728,17.997094)"
     id="layer2">
    <path
       style="opacity:1;fill:#ffff00;fill-opacity:1;fill-rule:evenodd;stroke:none;stroke-width:1px;stroke-linecap:butt;stroke-linejoin:miter;stroke-opacity:1"
       d="m 24.526263,34.246731 c 0,0 -4.64805,4.03554 -6.8142,6.21796 -2.39356,2.41154 -6.8142,7.58081 -6.8142,7.58081 0,0 -10.17218791,-9.39387 -10.56201992,-20.95368 C 0.12258508,20.768021 2.8434891,14.010561 7.1500431,9.3748896 11.679743,4.4990169 18.635553,1.9055939 25.207693,0.85713389 c 8.13778,-1.29822697 16.93589,-0.130658 24.53113,3.06639201 14.4512,6.0829161 26.96519,17.0871351 36.7967,29.3010751 9.84105,12.2258 16.017357,27.29475 20.783327,42.24807 2.16589,6.79553 3.4071,21.12403 3.4071,21.12403 0,0 4.70102,-11.32446 8.51775,-16.01338 6.05858,-7.44308 12.98611,-15.53495 22.14617,-18.39835 8.70493,-2.72113 19.0334,-1.55909 27.25682,2.38497 6.66318,3.19575 12.33562,9.25818 15.33195,16.01338 2.58528,5.82849 2.70394,12.84628 1.36285,19.079779 -1.35737,6.30918 -5.34378,11.86018 -9.19918,17.03551 -0.86356,1.15921 -1.70355,4.08852 -3.06639,3.06639 -1.36284,-1.02213 -7.15492,-5.79208 -7.15492,-5.79208 0,0 4.24816,-3.42949 5.45137,-5.79207 1.9408,-3.81089 3.28431,-8.42528 2.38497,-12.606279 -0.87458,-4.0659 -3.35568,-8.5295 -7.15492,-10.2213 -5.9581,-2.65313 -13.65686,-0.6677 -19.42048,2.38497 -8.53492,4.52047 -15.00661,13.048229 -19.07977,21.805449 -4.7485,10.2092 -6.40439,22.20469 -5.11065,33.3896 1.43455,12.40227 6.90896,24.45543 13.96912,34.75244 6.58874,9.60946 14.36135,20.61022 25.55326,23.84972 6.44013,1.8641 15.29461,1.25216 19.76119,-3.74781 3.03496,-3.39738 3.34815,-9.71143 1.02213,-13.62841 -1.97243,-3.32155 -6.70105,-4.89695 -10.56201,-4.76995 -1.92965,0.0635 -3.3953,1.83962 -5.11066,2.72569 -0.67688,0.34964 -2.04426,1.02213 -2.04426,1.02213 l -2.72568,-5.79208 31.34534,-17.71693 c 0,0 1.50892,3.58598 2.04426,5.45137 2.20571,7.68577 5.92797,15.59729 4.76995,23.509 -1.08168,7.39016 -4.51115,15.38266 -10.56202,19.76119 -5.88419,4.25791 -14.27569,4.78276 -21.46474,3.74782 -10.40639,-1.49811 -20.50473,-6.89107 -28.27895,-13.96912 -13.1213,-11.94631 -21.21012,-28.89449 -27.93824,-45.31446 -2.1205,-5.17509 -2.98059,-10.81429 -3.74781,-16.35409 -0.31199,-2.25274 -0.34071,-6.81421 -0.34071,-6.81421 0,0 -2.07844,4.65001 -3.4071,6.81421 -3.99306,6.50412 -7.579067,13.74502 -13.628407,18.39835 -7.07089,5.43914 -15.95365,9.66288 -24.87185,9.8806 -9.47875,0.2314 -19.81082,-2.92104 -26.91611,-9.19918 -7.00364,-6.18832 -12.03136,-15.86957 -12.26556,-25.21256 -0.16704,-6.6638 2.79744,-14.03444 7.83633,-18.39835 4.35218,-3.76919 11.15669,-6.00328 16.6948,-4.42923 5.56391,1.58138 10.83563,7.52129 12.4067,13.08812 1.19787,4.24447 0.26324,9.2222 -2.72568,12.46515 -2.97104,3.22354 -8.7293,4.2157 -13.08812,3.74781 -2.57748,-0.27668 -4.74134,-2.19116 -6.8142,-3.74781 -1.15587,-0.86803 -3.0664,-3.0664 -3.0664,-3.0664 0,0 -0.82601,2.94247 -0.68142,4.42924 0.42075,4.32652 1.59017,8.97383 4.42924,12.26556 3.28553,3.80939 8.25926,7.30006 13.28769,7.15492 8.66425,-0.25009 16.76052,-6.83675 22.14617,-13.62841 7.81013,-9.84908 11.30933,-23.21975 11.92486,-35.77457 0.82701,-16.868489 -4.20713,-34.049799 -11.24344,-49.402979 -6.05668,-13.21564 -14.48272,-26.08651 -25.89398,-35.09315 -6.39134,-5.04454 -14.34488,-9.472211 -22.48687,-9.539891 -5.14569,-0.04277 -10.84451,1.987931 -14.30983,5.792071 -2.39543,2.62964 -3.99968,6.78881 -3.06639,10.22131 0.56929,2.09374 2.77302,3.71446 4.8904,4.18831 1.27934,0.28631 3.62735,-0.95156 3.62735,-0.95156 z"
       id="path4302" />
  </g>
</svg>
