<?xml version="1.0" encoding="UTF-8" standalone="no"?>
<svg
   xmlns:dc="http://purl.org/dc/elements/1.1/"
   xmlns:cc="http://creativecommons.org/ns#"
   xmlns:rdf="http://www.w3.org/1999/02/22-rdf-syntax-ns#"
   xmlns:svg="http://www.w3.org/2000/svg"
   xmlns="http://www.w3.org/2000/svg"
   version="1.1"
   id="svg2"
   viewBox="0 0 744.09448819 1052.3622047"
   height="297mm"
   width="210mm">
  <defs
     id="defs4" />
  <metadata
     id="metadata7">
    <rdf:RDF>
      <cc:Work
         rdf:about="">
        <dc:format>image/svg+xml</dc:format>
        <dc:type
           rdf:resource="http://purl.org/dc/dcmitype/StillImage" />
        <dc:title></dc:title>
      </cc:Work>
    </rdf:RDF>
  </metadata>
  <g
     id="layer2">
    <path
       id="path4222"
       d="m 9.9735368,145.06397 -8.2058397,-0.1144 c 0,0 -1.85347005,-8.82625 -1.44551005,-13.25052 0.63918002,-6.9318 1.53920005,-14.67136 6.02296005,-19.99623 4.3951699,-5.21966 11.6686899,-7.58714 18.3098099,-9.1549 6.09632,-1.43914 12.5974,-0.93141 18.79164,0 2.16028,0.32483 6.26388,1.92734 6.26388,1.92734 L 69.947636,81.828926 c 0,0 -4.168579,-4.32289 -6.745719,-5.78204 -3.5358,-2.00194 -7.50466,-3.67962 -11.56409,-3.8547 -2.06275,-0.089 -4.38246,0.62116 -6.02296,1.44551 -0.98835,0.49665 -3.18524,-1.73499 -2.29729,-2.39457 9.76335,-7.25227 17.09568,-11.93605 25.42546,-18.32442 1.577609,-1.20992 2.248749,-0.59886 2.863049,0.0559 6.97588,7.43589 12.0739,10.78539 12.0739,10.78539 l 25.477134,-31.01826 c 0,0 -7.74206,-0.35768 -11.985694,-1.26482 -3.98119,-0.85103 -7.43883,-2.52152 -11.35328,-4.42688 -0.74342,-0.36185 -1.70179,-0.66552 -2.13816,-1.35517 -0.48958,-0.77375 0.78872,-2.34852 1.68643,-2.16826 5.32535,1.06933 11.65508,-0.95853 17.105214,-2.89103 7.3885,-2.6198 14.05873,-6.55354 20.13737,-11.5640802 3.42788,-2.82556 10.45928,-8.67307 10.45928,-8.67307 0,0 -4.21121,8.48761 -5.54112,13.0096002 -1.74704,5.94034 -3.03344,12.16084 -3.31263,18.37004 -0.45988,10.22759 0.65475,20.92409 5.94812,29.92555 0.42858,0.72881 1.25581,1.25575 1.31774,2.09897 0.1027,1.39848 -1.33876,3.58361 -2.28141,2.79123 -4.81101,-4.04407 -6.79917,-6.35991 -8.65846,-9.0977 -0.69016,-1.01626 -7.95031,-18.30981 -7.95031,-18.30981 l -25.055524,29.87389 c 0,0 0.83615,0.95385 5.01911,4.75307 4.13682,3.75731 11.927534,10.64579 14.495284,13.31582 0.93762,0.97497 0.97081,1.47053 0,2.6501 -6.61115,8.03282 -11.822684,14.687284 -18.550724,24.573684 -0.74407,1.09335 -1.3742,0.69524 -2.19838,0.39149 -0.6482,-0.23889 -1.36601,-0.7283 -1.65632,-1.35516 -0.40637,-0.87748 0.39767,-3.01551 0.75287,-3.91492 1.20757,-3.05773 0.72904,-6.02944 -0.27103,-9.33559 -1.41908,-4.691384 -4.90182,-8.573144 -8.43215,-12.045924 -0.38404,-0.37778 -0.84321,-0.57219 -0.84321,-0.57219 0,0 -4.00099,3.70158 -8.112329,8.91082 -4.05555,5.138544 -8.03776,9.958614 -12.33563,14.277584 -0.91766,0.92216 -1.35422,1.60778 -0.20778,2.69483 5.25091,4.97892 7.06726,9.83125 7.7666,15.64509 0.82197,6.83322 -0.86709,14.1589 -4.09562,20.23715 -2.76879,5.21271 -7.11181,10.03293 -12.41336,12.62756 -5.33588,2.61142 -11.11978,1.95209 -17.64122,2.27927 -0.25363,0.0127 -0.88944,-0.54387 -1.08413,-0.99378 -0.66182,-1.52942 0.39149,-5.27009 0.39149,-5.27009 0,0 7.20822,1.12214 10.32938,-0.54207 4.05342,-2.1613 7.15252,-6.36566 8.131,-10.75099 0.92951,-4.16589 -0.42337,-8.88629 -2.6501,-12.52776 -2.8593,-4.67592 -7.45756,-9.00605 -12.76868,-10.3595 -5.14372,-1.31079 -11.48488,-0.38721 -15.65971,2.89103 -3.3925,2.66393 -4.32486,7.6033 -5.3002,11.805 -0.4992002,2.15053 -0.2263102,6.61925 -0.2263102,6.61925 z"
       style="opacity:1;fill:#ffff00;fill-opacity:1;fill-rule:evenodd;stroke:none;stroke-width:1px;stroke-linecap:butt;stroke-linejoin:miter;stroke-opacity:1" />
  </g>
</svg>
