<?xml version="1.0" encoding="UTF-8" standalone="no"?>
<svg
   xmlns:dc="http://purl.org/dc/elements/1.1/"
   xmlns:cc="http://creativecommons.org/ns#"
   xmlns:rdf="http://www.w3.org/1999/02/22-rdf-syntax-ns#"
   xmlns:svg="http://www.w3.org/2000/svg"
   xmlns="http://www.w3.org/2000/svg"
   xmlns:sodipodi="http://sodipodi.sourceforge.net/DTD/sodipodi-0.dtd"
   xmlns:inkscape="http://www.inkscape.org/namespaces/inkscape"
   version="1.1"
   id="svg2"
   viewBox="0 0 744.09448819 1052.3622047"
   height="297mm"
   width="210mm"
   inkscape:version="0.91 r13725"
   sodipodi:docname="scorpio.svg">
  <sodipodi:namedview
     pagecolor="#ffffff"
     bordercolor="#666666"
     borderopacity="1"
     objecttolerance="10"
     gridtolerance="10"
     guidetolerance="10"
     inkscape:pageopacity="0"
     inkscape:pageshadow="2"
     inkscape:window-width="1535"
     inkscape:window-height="876"
     id="namedview4208"
     showgrid="false"
     inkscape:zoom="1.3297762"
     inkscape:cx="184.29981"
     inkscape:cy="891.11251"
     inkscape:window-x="65"
     inkscape:window-y="24"
     inkscape:window-maximized="1"
     inkscape:current-layer="svg2" />
  <defs
     id="defs4" />
  <metadata
     id="metadata7">
    <rdf:RDF>
      <cc:Work
         rdf:about="">
        <dc:format>image/svg+xml</dc:format>
        <dc:type
           rdf:resource="http://purl.org/dc/dcmitype/StillImage" />
        <dc:title />
      </cc:Work>
    </rdf:RDF>
  </metadata>
  <g
     id="layer2">
    <path
       id="path4275"
       d="m 0.9342983,25.219457 -0.722756,-8.67307 c 0,0 6.691726,-2.49733 9.8776557,-4.09562 3.50842,-1.76008 10.11858,-6.0229604 10.11858,-6.0229604 0,0 3.61326,3.9478204 5.30021,6.0229604 1.5197,1.86941 4.33653,5.78205 4.33653,5.78205 0,0 12.06093,-4.93709 17.82797,-7.95031 3.99159,-2.0855704 11.56409,-6.9866404 11.56409,-6.9866404 0,0 2.68779,4.33237 4.33653,6.26388 1.65942,1.9440304 5.54113,5.3002104 5.54113,5.3002104 0,0 10.7198,-3.5536 15.90062,-5.7820404 6.10343,-2.62528 17.827972,-8.91399001 17.827972,-8.91399001 0,0 -0.75298,10.09050041 2.69144,13.53277041 4.69842,4.69549 8.02246,3.07837 17.06387,3.81336 0.80042,0.0651 1.92735,1.44551 1.92735,1.44551 0,0 -8.38434,4.30923 -11.80501,7.46848 -2.94973,2.7243 -6.81529,8.25435 -7.22755,9.63674 -3.07797,10.32104 -4.81084,20.23895 -7.227562,30.35573 -2.32164,9.71878 -4.78036,19.1399 -6.86617,28.18747 -0.83941,3.6411 5.17975,10.841333 5.17975,10.841333 0,0 -1.28017,0.25956 -1.92735,0.24091 -7.58319,-0.21855 -11.91958,1.1418 -15.41879,5.30021 -2.93267,3.48514 -3.70136,9.20235 -2.16826,13.49144 1.26378,3.53561 4.83279,6.39967 8.43214,7.46847 5.7594,1.71021 12.46193,0.052 17.827972,-2.6501 3.44882,-1.73665 5.97597,-5.0285 8.19123,-8.19123 0.76262,-1.08879 1.68643,-3.61378 1.68643,-3.61378 0,0 -5.66427,1.10854 -8.19123,-0.6023 -2.50675,-1.69715 -4.18101,-4.70764 -3.2524,-7.58893 1.28477,-3.98634 5.2078,-6.54934 9.39582,-6.50479 3.47438,0.037 6.82678,1.49597 8.43215,4.57744 1.6701,3.20572 1.39459,8.18143 0.12046,11.56409 -2.06952,5.49431 -6.58304,10.02712 -11.32317,13.49144 -3.92512,2.86867 -8.28748,4.50508 -13.009592,5.66158 -3.4462,0.84401 -7.34189,1.564 -10.72088,0.48184 -4.3385,-1.38945 -8.62689,-4.50682 -10.72087,-8.55261 -1.55736,-3.00898 -1.19099,-6.73808 -0.96368,-10.11857 0.49792,-7.40498 3.38264,-14.45284 5.05929,-21.682673 5.00819,-21.59561 11.7036,-41.93739 14.93695,-64.80708 0.54393,-3.84726 -0.83049,-8.37105 -3.61378,-11.08225 -2.2205,-2.16298 -5.82324,-2.88762 -8.91398,-2.6501 -3.36676,0.25874 -6.77411,1.942 -9.15491,4.33653 -2.81177,2.82797 -4.08789,6.97355 -5.05929,10.84134 -0.7053,2.80826 -0.41561,5.77834 -0.48183,8.67306 -0.37651,16.45924 -0.28261,32.9425 0.48183,49.38829 0.1796,3.86389 -0.041,7.828793 0.96368,11.564093 0.43854,1.63039 0.96397,2.35676 2.16826,4.57745 0.30865,0.56915 -0.24091,1.92735 -0.24091,1.92735 l -6.02297,5.30021 c 0,0 -1.78477,-2.25738 -6.57535,-2.56492 -2.12186,-0.13622 -6.43425,1.11941 -6.43425,1.11941 l -2.89102,-5.05929 c 0,0 3.93653,-1.22267 5.27098,-2.96158 2.31237,-3.01323 3.06558,-7.455583 3.16117,-11.252613 0.3053,-12.12747 -0.0433,-24.41441 -0.24092,-36.61961 -0.20158,-12.44997 -0.96367,-37.34237 -0.96367,-37.34237 0,0 -8.36706,2.52133 -12.52776,3.85469 -4.11121,1.3175 -12.28685,4.09562 -12.28685,4.09562 0,0 -0.60228,22.48379 -0.72275,33.72859 -0.0826,7.70895 -1.17448,15.50877 0,23.12817 1.21882,7.90706 2.16719,16.690493 7.22755,22.887263 0.52296,0.6404 2.16827,1.20459 2.16827,1.20459 l -2.77057,4.51723 c 0,0 -4.04746,-0.0107 -6.26388,0.60229 -3.59808,0.99512 -7.20218,2.24858 -10.47995,4.03539 -2.15835,1.17658 -5.78205,4.57745 -5.78205,4.57745 l -3.3728497,-4.57745 c 0,0 5.6284397,-3.34165 7.5286997,-5.9025 1.15529,-1.5569 1.71888,-3.52142 2.10804,-5.42067 0.96774,-4.72292 0.3783,-9.635183 0.48183,-14.455113 0.44756,-20.83561 0.6023,-62.51835 0.6023,-62.51835 l -8.55261,-10.23904 z"
       style="opacity:1;fill:#ffff00;fill-opacity:1;fill-rule:evenodd;stroke:none;stroke-width:1px;stroke-linecap:butt;stroke-linejoin:miter;stroke-opacity:1" />
  </g>
</svg>
